# MagicaVoxel @ Ephtracy

# group
o 

# material
mtllib enemy3.mtl
usemtl palette

# normals
vn -1 0 0
vn 1 0 0
vn 0 0 1
vn 0 0 -1
vn 0 -1 0
vn 0 1 0

# texcoords
vt 0.0683594 0.5
vt 0.279297 0.5
vt 0.306641 0.5
vt 0.970703 0.5
vt 0.978516 0.5
vt 0.982422 0.5
vt 0.986328 0.5
vt 0.994141 0.5

# verts
v -0.8 0.5 0.1
v -0.8 0.5 0
v -0.8 0.5 -0.1
v -0.8 0.7 0.1
v -0.8 0.7 0
v -0.8 0.7 -0.1
v -0.7 0.2 0.1
v -0.7 0.2 -0.1
v -0.7 0.5 0.1
v -0.7 0.5 0
v -0.7 0.5 -0.1
v -0.6 0 0.4
v -0.6 0 -0.4
v -0.6 0.1 0.4
v -0.6 0.1 0.3
v -0.6 0.1 0.2
v -0.6 0.1 0.1
v -0.6 0.1 0
v -0.6 0.1 -0.1
v -0.6 0.1 -0.2
v -0.6 0.1 -0.3
v -0.6 0.1 -0.4
v -0.6 0.2 0.1
v -0.6 0.2 0
v -0.6 0.2 -0.1
v -0.6 0.4 0.4
v -0.6 0.4 0.3
v -0.6 0.4 0.2
v -0.6 0.4 0.1
v -0.6 0.4 -0.1
v -0.6 0.4 -0.2
v -0.6 0.4 -0.3
v -0.6 0.4 -0.4
v -0.6 0.5 0.4
v -0.6 0.5 0.1
v -0.6 0.5 -0.1
v -0.6 0.5 -0.4
v -0.5 0.8 0.1
v -0.5 0.8 -0.1
v -0.5 1 0.1
v -0.5 1 -0.1
v -0.4 0.5 0.3
v -0.4 0.5 0.1
v -0.4 0.5 -0.1
v -0.4 0.5 -0.3
v -0.4 0.7 0.3
v -0.4 0.7 0.1
v -0.4 0.7 -0.1
v -0.4 0.7 -0.3
v -0.4 0.8 0.1
v -0.4 0.8 -0.1
v 0.1 0 0.4
v 0.1 0 0.3
v 0.1 0 0.2
v 0.1 0 0.1
v 0.1 0 0
v 0.1 0 -0.1
v 0.1 0 -0.2
v 0.1 0 -0.3
v 0.1 0 -0.4
v 0.1 0.1 0.4
v 0.1 0.1 0.3
v 0.1 0.1 0.2
v 0.1 0.1 0.1
v 0.1 0.1 0
v 0.1 0.1 -0.1
v 0.1 0.1 -0.2
v 0.1 0.1 -0.3
v 0.1 0.1 -0.4
v 0.1 0.7 0.1
v 0.1 0.7 -0.1
v 0.1 0.8 0.1
v 0.1 0.8 -0.1
v 0.1 0.9 0.1
v 0.1 0.9 -0.1
v 0.1 1 0.1
v 0.1 1 -0.1
v 0.4 0.5 0.1
v 0.4 0.5 0
v 0.4 0.5 -0.1
v 0.4 0.7 0.1
v 0.4 0.7 0
v 0.4 0.7 -0.1
v -0.6 0.5 0.1
v -0.6 0.5 0
v -0.6 0.5 -0.1
v -0.6 0.7 0.1
v -0.6 0.7 0
v -0.6 0.7 -0.1
v -0.3 0 0.4
v -0.3 0 0.3
v -0.3 0 0.2
v -0.3 0 0.1
v -0.3 0 0
v -0.3 0 -0.1
v -0.3 0 -0.2
v -0.3 0 -0.3
v -0.3 0 -0.4
v -0.3 0.1 0.4
v -0.3 0.1 0.3
v -0.3 0.1 0.2
v -0.3 0.1 0.1
v -0.3 0.1 0
v -0.3 0.1 -0.1
v -0.3 0.1 -0.2
v -0.3 0.1 -0.3
v -0.3 0.1 -0.4
v -0.3 0.7 0.1
v -0.3 0.7 -0.1
v -0.3 0.8 0.1
v -0.3 0.8 -0.1
v -0.3 0.9 0.1
v -0.3 0.9 -0.1
v -0.3 1 0.1
v -0.3 1 -0.1
v 0.2 0.5 0.3
v 0.2 0.5 0.1
v 0.2 0.5 -0.1
v 0.2 0.5 -0.3
v 0.2 0.7 0.3
v 0.2 0.7 0.1
v 0.2 0.7 -0.1
v 0.2 0.7 -0.3
v 0.2 0.8 0.1
v 0.2 0.8 -0.1
v 0.3 0.8 0.1
v 0.3 0.8 -0.1
v 0.3 1 0.1
v 0.3 1 -0.1
v 0.4 0 0.4
v 0.4 0 -0.4
v 0.4 0.1 0.4
v 0.4 0.1 0.3
v 0.4 0.1 0.2
v 0.4 0.1 0.1
v 0.4 0.1 0
v 0.4 0.1 -0.1
v 0.4 0.1 -0.2
v 0.4 0.1 -0.3
v 0.4 0.1 -0.4
v 0.4 0.2 0.1
v 0.4 0.2 0
v 0.4 0.2 -0.1
v 0.4 0.4 0.4
v 0.4 0.4 0.3
v 0.4 0.4 0.2
v 0.4 0.4 0.1
v 0.4 0.4 -0.1
v 0.4 0.4 -0.2
v 0.4 0.4 -0.3
v 0.4 0.4 -0.4
v 0.4 0.5 0.4
v 0.4 0.5 0.1
v 0.4 0.5 -0.1
v 0.4 0.5 -0.4
v 0.5 0.2 0.1
v 0.5 0.2 -0.1
v 0.5 0.5 0.1
v 0.5 0.5 0
v 0.5 0.5 -0.1
v 0.6 0.5 0.1
v 0.6 0.5 0
v 0.6 0.5 -0.1
v 0.6 0.7 0.1
v 0.6 0.7 0
v 0.6 0.7 -0.1
v -0.6 0 0.4
v -0.6 0.1 0.4
v -0.6 0.4 0.4
v -0.6 0.5 0.4
v -0.5 0.1 0.4
v -0.5 0.3 0.4
v -0.5 0.4 0.4
v -0.4 0.1 0.4
v -0.4 0.3 0.4
v -0.3 0 0.4
v -0.3 0.1 0.4
v -0.3 0.3 0.4
v 0.1 0 0.4
v 0.1 0.1 0.4
v 0.1 0.3 0.4
v 0.2 0.1 0.4
v 0.2 0.3 0.4
v 0.3 0.1 0.4
v 0.3 0.3 0.4
v 0.3 0.4 0.4
v 0.4 0 0.4
v 0.4 0.1 0.4
v 0.4 0.4 0.4
v 0.4 0.5 0.4
v -0.4 0.5 0.3
v -0.4 0.7 0.3
v -0.3 0.5 0.3
v -0.3 0.6 0.3
v -0.2 0.6 0.3
v -0.2 0.7 0.3
v 5.96046e-08 0.6 0.3
v 5.96046e-08 0.7 0.3
v 0.1 0.5 0.3
v 0.1 0.6 0.3
v 0.2 0.5 0.3
v 0.2 0.7 0.3
v -0.8 0.5 0.1
v -0.8 0.7 0.1
v -0.7 0.2 0.1
v -0.7 0.5 0.1
v -0.6 0.2 0.1
v -0.6 0.4 0.1
v -0.6 0.5 0.1
v -0.6 0.7 0.1
v -0.5 0.8 0.1
v -0.5 1 0.1
v -0.4 0.7 0.1
v -0.4 0.8 0.1
v -0.3 0.7 0.1
v -0.3 0.8 0.1
v -0.3 0.9 0.1
v -0.3 1 0.1
v 0.1 0.7 0.1
v 0.1 0.8 0.1
v 0.1 0.9 0.1
v 0.1 1 0.1
v 0.2 0.7 0.1
v 0.2 0.8 0.1
v 0.3 0.8 0.1
v 0.3 1 0.1
v 0.4 0.2 0.1
v 0.4 0.4 0.1
v 0.4 0.5 0.1
v 0.4 0.7 0.1
v 0.5 0.2 0.1
v 0.5 0.5 0.1
v 0.6 0.5 0.1
v 0.6 0.7 0.1
v -0.8 0.5 -0.1
v -0.8 0.7 -0.1
v -0.7 0.2 -0.1
v -0.7 0.5 -0.1
v -0.6 0.2 -0.1
v -0.6 0.4 -0.1
v -0.6 0.5 -0.1
v -0.6 0.7 -0.1
v -0.5 0.8 -0.1
v -0.5 1 -0.1
v -0.4 0.7 -0.1
v -0.4 0.8 -0.1
v -0.3 0.7 -0.1
v -0.3 0.8 -0.1
v -0.3 0.9 -0.1
v -0.3 1 -0.1
v 0.1 0.7 -0.1
v 0.1 0.8 -0.1
v 0.1 0.9 -0.1
v 0.1 1 -0.1
v 0.2 0.7 -0.1
v 0.2 0.8 -0.1
v 0.3 0.8 -0.1
v 0.3 1 -0.1
v 0.4 0.2 -0.1
v 0.4 0.4 -0.1
v 0.4 0.5 -0.1
v 0.4 0.7 -0.1
v 0.5 0.2 -0.1
v 0.5 0.5 -0.1
v 0.6 0.5 -0.1
v 0.6 0.7 -0.1
v -0.4 0.5 -0.3
v -0.4 0.7 -0.3
v -0.3 0.5 -0.3
v -0.3 0.6 -0.3
v -0.2 0.6 -0.3
v -0.2 0.7 -0.3
v 5.96046e-08 0.6 -0.3
v 5.96046e-08 0.7 -0.3
v 0.1 0.5 -0.3
v 0.1 0.6 -0.3
v 0.2 0.5 -0.3
v 0.2 0.7 -0.3
v -0.6 0 -0.4
v -0.6 0.1 -0.4
v -0.6 0.4 -0.4
v -0.6 0.5 -0.4
v -0.5 0.1 -0.4
v -0.5 0.3 -0.4
v -0.5 0.4 -0.4
v -0.4 0.1 -0.4
v -0.4 0.3 -0.4
v -0.3 0 -0.4
v -0.3 0.1 -0.4
v -0.3 0.3 -0.4
v 0.1 0 -0.4
v 0.1 0.1 -0.4
v 0.1 0.3 -0.4
v 0.2 0.1 -0.4
v 0.2 0.3 -0.4
v 0.3 0.1 -0.4
v 0.3 0.3 -0.4
v 0.3 0.4 -0.4
v 0.4 0 -0.4
v 0.4 0.1 -0.4
v 0.4 0.4 -0.4
v 0.4 0.5 -0.4
v -0.6 0 0.4
v -0.3 0 0.4
v 0.1 0 0.4
v 0.4 0 0.4
v -0.5 0 0.3
v -0.3 0 0.3
v 0.1 0 0.3
v 0.3 0 0.3
v -0.5 0 0.2
v -0.3 0 0.2
v 0.1 0 0.2
v 0.3 0 0.2
v -0.5 0 0.1
v -0.3 0 0.1
v 0.1 0 0.1
v 0.3 0 0.1
v -0.5 0 0
v -0.3 0 0
v 0.1 0 0
v 0.3 0 0
v -0.5 0 -0.1
v -0.3 0 -0.1
v 0.1 0 -0.1
v 0.3 0 -0.1
v -0.5 0 -0.2
v -0.3 0 -0.2
v 0.1 0 -0.2
v 0.3 0 -0.2
v -0.5 0 -0.3
v -0.3 0 -0.3
v 0.1 0 -0.3
v 0.3 0 -0.3
v -0.6 0 -0.4
v -0.3 0 -0.4
v 0.1 0 -0.4
v 0.4 0 -0.4
v -0.3 0.1 0.4
v 0.1 0.1 0.4
v -0.3 0.1 0.3
v 0.1 0.1 0.3
v -0.3 0.1 0.2
v 0.1 0.1 0.2
v -0.3 0.1 0.1
v 0.1 0.1 0.1
v -0.3 0.1 0
v 0.1 0.1 0
v -0.3 0.1 -0.1
v 0.1 0.1 -0.1
v -0.3 0.1 -0.2
v 0.1 0.1 -0.2
v -0.3 0.1 -0.3
v 0.1 0.1 -0.3
v -0.3 0.1 -0.4
v 0.1 0.1 -0.4
v -0.7 0.2 0.1
v -0.6 0.2 0.1
v 0.4 0.2 0.1
v 0.5 0.2 0.1
v -0.6 0.2 0
v 0.4 0.2 0
v -0.7 0.2 -0.1
v -0.6 0.2 -0.1
v 0.4 0.2 -0.1
v 0.5 0.2 -0.1
v -0.8 0.5 0.1
v -0.7 0.5 0.1
v 0.5 0.5 0.1
v 0.6 0.5 0.1
v -0.8 0.5 0
v -0.7 0.5 0
v 0.5 0.5 0
v 0.6 0.5 0
v -0.8 0.5 -0.1
v -0.7 0.5 -0.1
v 0.5 0.5 -0.1
v 0.6 0.5 -0.1
v -0.5 0.8 0.1
v -0.4 0.8 0.1
v -0.3 0.8 0.1
v 0.1 0.8 0.1
v 0.2 0.8 0.1
v 0.3 0.8 0.1
v -0.5 0.8 -0.1
v -0.4 0.8 -0.1
v -0.3 0.8 -0.1
v 0.1 0.8 -0.1
v 0.2 0.8 -0.1
v 0.3 0.8 -0.1
v -0.6 0.5 0.4
v 0.4 0.5 0.4
v -0.4 0.5 0.3
v -0.3 0.5 0.3
v 0.1 0.5 0.3
v 0.2 0.5 0.3
v -0.6 0.5 0.1
v -0.4 0.5 0.1
v 0.2 0.5 0.1
v 0.4 0.5 0.1
v -0.6 0.5 0
v 0.4 0.5 0
v -0.6 0.5 -0.1
v -0.4 0.5 -0.1
v 0.2 0.5 -0.1
v 0.4 0.5 -0.1
v -0.4 0.5 -0.3
v -0.3 0.5 -0.3
v 0.1 0.5 -0.3
v 0.2 0.5 -0.3
v -0.6 0.5 -0.4
v 0.4 0.5 -0.4
v -0.4 0.7 0.3
v -0.2 0.7 0.3
v 5.96046e-08 0.7 0.3
v 0.2 0.7 0.3
v -0.8 0.7 0.1
v -0.6 0.7 0.1
v -0.4 0.7 0.1
v -0.3 0.7 0.1
v 0.1 0.7 0.1
v 0.2 0.7 0.1
v 0.4 0.7 0.1
v 0.6 0.7 0.1
v -0.8 0.7 0
v -0.6 0.7 0
v 0.4 0.7 0
v 0.6 0.7 0
v -0.8 0.7 -0.1
v -0.6 0.7 -0.1
v -0.4 0.7 -0.1
v -0.3 0.7 -0.1
v 0.1 0.7 -0.1
v 0.2 0.7 -0.1
v 0.4 0.7 -0.1
v 0.6 0.7 -0.1
v -0.4 0.7 -0.3
v -0.2 0.7 -0.3
v 5.96046e-08 0.7 -0.3
v 0.2 0.7 -0.3
v -0.3 0.9 0.1
v 0.1 0.9 0.1
v -0.3 0.9 -0.1
v 0.1 0.9 -0.1
v -0.5 1 0.1
v -0.3 1 0.1
v 0.1 1 0.1
v 0.3 1 0.1
v -0.5 1 -0.1
v -0.3 1 -0.1
v 0.1 1 -0.1
v 0.3 1 -0.1

# faces
f 4/4/1 2/4/1 1/4/1
f 5/6/1 3/6/1 2/6/1
f 5/4/1 2/4/1 4/4/1
f 6/6/1 3/6/1 5/6/1
f 9/6/1 8/6/1 7/6/1
f 10/6/1 8/6/1 9/6/1
f 11/6/1 8/6/1 10/6/1
f 14/8/1 13/8/1 12/8/1
f 15/8/1 13/8/1 14/8/1
f 16/8/1 13/8/1 15/8/1
f 17/8/1 13/8/1 16/8/1
f 18/8/1 13/8/1 17/8/1
f 19/8/1 13/8/1 18/8/1
f 20/8/1 13/8/1 19/8/1
f 21/8/1 13/8/1 20/8/1
f 22/8/1 13/8/1 21/8/1
f 23/6/1 17/6/1 16/6/1
f 23/2/1 18/2/1 17/2/1
f 24/6/1 19/6/1 18/6/1
f 24/2/1 18/2/1 23/2/1
f 25/2/1 20/2/1 19/2/1
f 25/6/1 19/6/1 24/6/1
f 26/4/1 15/4/1 14/4/1
f 27/2/1 16/2/1 15/2/1
f 27/4/1 15/4/1 26/4/1
f 28/6/1 23/6/1 16/6/1
f 28/2/1 16/2/1 27/2/1
f 29/6/1 23/6/1 28/6/1
f 30/2/1 20/2/1 25/2/1
f 31/6/1 21/6/1 20/6/1
f 31/2/1 20/2/1 30/2/1
f 32/2/1 22/2/1 21/2/1
f 32/6/1 21/6/1 31/6/1
f 33/2/1 22/2/1 32/2/1
f 34/8/1 29/8/1 28/8/1
f 34/8/1 27/8/1 26/8/1
f 34/8/1 28/8/1 27/8/1
f 35/8/1 29/8/1 34/8/1
f 36/8/1 31/8/1 30/8/1
f 36/8/1 33/8/1 32/8/1
f 36/8/1 32/8/1 31/8/1
f 37/8/1 33/8/1 36/8/1
f 40/4/1 39/4/1 38/4/1
f 41/4/1 39/4/1 40/4/1
f 46/6/1 43/6/1 42/6/1
f 47/4/1 44/4/1 43/4/1
f 47/6/1 43/6/1 46/6/1
f 48/6/1 45/6/1 44/6/1
f 48/4/1 44/4/1 47/4/1
f 49/6/1 45/6/1 48/6/1
f 50/4/1 48/4/1 47/4/1
f 51/4/1 48/4/1 50/4/1
f 61/8/1 53/8/1 52/8/1
f 62/4/1 54/4/1 53/4/1
f 62/8/1 53/8/1 61/8/1
f 63/5/1 55/5/1 54/5/1
f 63/4/1 54/4/1 62/4/1
f 64/4/1 56/4/1 55/4/1
f 64/5/1 55/5/1 63/5/1
f 65/5/1 57/5/1 56/5/1
f 65/4/1 56/4/1 64/4/1
f 66/4/1 58/4/1 57/4/1
f 66/5/1 57/5/1 65/5/1
f 67/5/1 59/5/1 58/5/1
f 67/4/1 58/4/1 66/4/1
f 68/8/1 60/8/1 59/8/1
f 68/5/1 59/5/1 67/5/1
f 69/8/1 60/8/1 68/8/1
f 72/4/1 71/4/1 70/4/1
f 73/4/1 71/4/1 72/4/1
f 76/4/1 75/4/1 74/4/1
f 77/4/1 75/4/1 76/4/1
f 81/4/1 79/4/1 78/4/1
f 82/6/1 80/6/1 79/6/1
f 82/4/1 79/4/1 81/4/1
f 83/6/1 80/6/1 82/6/1
f 84/4/2 85/4/2 87/4/2
f 85/6/2 86/6/2 88/6/2
f 87/4/2 85/4/2 88/4/2
f 88/6/2 86/6/2 89/6/2
f 90/8/2 91/8/2 99/8/2
f 91/4/2 92/4/2 100/4/2
f 99/8/2 91/8/2 100/8/2
f 92/5/2 93/5/2 101/5/2
f 100/4/2 92/4/2 101/4/2
f 93/4/2 94/4/2 102/4/2
f 101/5/2 93/5/2 102/5/2
f 94/5/2 95/5/2 103/5/2
f 102/4/2 94/4/2 103/4/2
f 95/4/2 96/4/2 104/4/2
f 103/5/2 95/5/2 104/5/2
f 96/5/2 97/5/2 105/5/2
f 104/4/2 96/4/2 105/4/2
f 97/8/2 98/8/2 106/8/2
f 105/5/2 97/5/2 106/5/2
f 106/8/2 98/8/2 107/8/2
f 108/4/2 109/4/2 110/4/2
f 110/4/2 109/4/2 111/4/2
f 112/4/2 113/4/2 114/4/2
f 114/4/2 113/4/2 115/4/2
f 116/6/2 117/6/2 120/6/2
f 117/4/2 118/4/2 121/4/2
f 120/6/2 117/6/2 121/6/2
f 118/6/2 119/6/2 122/6/2
f 121/4/2 118/4/2 122/4/2
f 122/6/2 119/6/2 123/6/2
f 121/4/2 122/4/2 124/4/2
f 124/4/2 122/4/2 125/4/2
f 126/4/2 127/4/2 128/4/2
f 128/4/2 127/4/2 129/4/2
f 130/8/2 131/8/2 132/8/2
f 132/8/2 131/8/2 133/8/2
f 133/8/2 131/8/2 134/8/2
f 134/8/2 131/8/2 135/8/2
f 135/8/2 131/8/2 136/8/2
f 136/8/2 131/8/2 137/8/2
f 137/8/2 131/8/2 138/8/2
f 138/8/2 131/8/2 139/8/2
f 139/8/2 131/8/2 140/8/2
f 134/6/2 135/6/2 141/6/2
f 135/2/2 136/2/2 141/2/2
f 136/6/2 137/6/2 142/6/2
f 141/2/2 136/2/2 142/2/2
f 137/2/2 138/2/2 143/2/2
f 142/6/2 137/6/2 143/6/2
f 132/4/2 133/4/2 144/4/2
f 133/2/2 134/2/2 145/2/2
f 144/4/2 133/4/2 145/4/2
f 134/6/2 141/6/2 146/6/2
f 145/2/2 134/2/2 146/2/2
f 146/6/2 141/6/2 147/6/2
f 143/2/2 138/2/2 148/2/2
f 138/6/2 139/6/2 149/6/2
f 148/2/2 138/2/2 149/2/2
f 139/2/2 140/2/2 150/2/2
f 149/6/2 139/6/2 150/6/2
f 150/2/2 140/2/2 151/2/2
f 146/8/2 147/8/2 152/8/2
f 144/8/2 145/8/2 152/8/2
f 145/8/2 146/8/2 152/8/2
f 152/8/2 147/8/2 153/8/2
f 148/8/2 149/8/2 154/8/2
f 150/8/2 151/8/2 154/8/2
f 149/8/2 150/8/2 154/8/2
f 154/8/2 151/8/2 155/8/2
f 156/6/2 157/6/2 158/6/2
f 158/6/2 157/6/2 159/6/2
f 159/6/2 157/6/2 160/6/2
f 161/4/2 162/4/2 164/4/2
f 162/6/2 163/6/2 165/6/2
f 164/4/2 162/4/2 165/4/2
f 165/6/2 163/6/2 166/6/2
f 171/8/3 168/8/3 167/8/3
f 171/4/3 169/4/3 168/4/3
f 172/4/3 169/4/3 171/4/3
f 173/8/3 170/8/3 169/8/3
f 173/4/3 169/4/3 172/4/3
f 174/7/3 172/7/3 171/7/3
f 174/8/3 171/8/3 167/8/3
f 175/8/3 173/8/3 172/8/3
f 175/7/3 172/7/3 174/7/3
f 176/8/3 174/8/3 167/8/3
f 176/8/3 175/8/3 174/8/3
f 177/8/3 175/8/3 176/8/3
f 178/8/3 173/8/3 175/8/3
f 178/8/3 175/8/3 177/8/3
f 180/1/3 178/1/3 177/1/3
f 181/8/3 173/8/3 178/8/3
f 181/1/3 178/1/3 180/1/3
f 182/8/3 180/8/3 179/8/3
f 182/8/3 181/8/3 180/8/3
f 183/8/3 173/8/3 181/8/3
f 183/8/3 181/8/3 182/8/3
f 184/8/3 182/8/3 179/8/3
f 184/7/3 183/7/3 182/7/3
f 185/8/3 173/8/3 183/8/3
f 185/7/3 183/7/3 184/7/3
f 186/8/3 170/8/3 173/8/3
f 186/8/3 173/8/3 185/8/3
f 187/8/3 184/8/3 179/8/3
f 188/4/3 185/4/3 184/4/3
f 188/8/3 184/8/3 187/8/3
f 188/4/3 186/4/3 185/4/3
f 189/8/3 170/8/3 186/8/3
f 189/4/3 186/4/3 188/4/3
f 190/8/3 170/8/3 189/8/3
f 193/6/3 192/6/3 191/6/3
f 194/6/3 192/6/3 193/6/3
f 195/1/3 194/1/3 193/1/3
f 195/6/3 192/6/3 194/6/3
f 196/6/3 192/6/3 195/6/3
f 197/1/3 195/1/3 193/1/3
f 197/2/3 196/2/3 195/2/3
f 198/2/3 196/2/3 197/2/3
f 199/1/3 197/1/3 193/1/3
f 200/6/3 198/6/3 197/6/3
f 200/1/3 197/1/3 199/1/3
f 201/6/3 200/6/3 199/6/3
f 202/6/3 198/6/3 200/6/3
f 202/6/3 200/6/3 201/6/3
f 206/4/3 204/4/3 203/4/3
f 207/6/3 206/6/3 205/6/3
f 208/6/3 206/6/3 207/6/3
f 209/4/3 204/4/3 206/4/3
f 209/6/3 206/6/3 208/6/3
f 210/4/3 204/4/3 209/4/3
f 214/4/3 212/4/3 211/4/3
f 215/4/3 214/4/3 213/4/3
f 216/4/3 212/4/3 214/4/3
f 216/4/3 214/4/3 215/4/3
f 217/4/3 212/4/3 216/4/3
f 218/4/3 212/4/3 217/4/3
f 220/4/3 217/4/3 216/4/3
f 221/4/3 217/4/3 220/4/3
f 223/4/3 220/4/3 219/4/3
f 223/4/3 222/4/3 221/4/3
f 223/4/3 221/4/3 220/4/3
f 224/4/3 222/4/3 223/4/3
f 225/4/3 222/4/3 224/4/3
f 226/4/3 222/4/3 225/4/3
f 231/6/3 228/6/3 227/6/3
f 231/6/3 229/6/3 228/6/3
f 232/4/3 230/4/3 229/4/3
f 232/6/3 229/6/3 231/6/3
f 233/4/3 230/4/3 232/4/3
f 234/4/3 230/4/3 233/4/3
f 235/6/4 236/6/4 238/6/4
f 237/6/4 238/6/4 239/6/4
f 239/6/4 238/6/4 240/6/4
f 238/6/4 236/6/4 241/6/4
f 240/6/4 238/6/4 241/6/4
f 241/6/4 236/6/4 242/6/4
f 243/4/4 244/4/4 246/4/4
f 245/4/4 246/4/4 247/4/4
f 246/4/4 244/4/4 248/4/4
f 247/4/4 246/4/4 248/4/4
f 248/4/4 244/4/4 249/4/4
f 249/4/4 244/4/4 250/4/4
f 248/4/4 249/4/4 252/4/4
f 252/4/4 249/4/4 253/4/4
f 251/4/4 252/4/4 255/4/4
f 253/4/4 254/4/4 255/4/4
f 252/4/4 253/4/4 255/4/4
f 255/4/4 254/4/4 256/4/4
f 256/4/4 254/4/4 257/4/4
f 257/4/4 254/4/4 258/4/4
f 259/6/4 260/6/4 263/6/4
f 261/6/4 262/6/4 263/6/4
f 260/6/4 261/6/4 263/6/4
f 263/6/4 262/6/4 264/6/4
f 264/6/4 262/6/4 265/6/4
f 265/6/4 262/6/4 266/6/4
f 267/6/4 268/6/4 269/6/4
f 269/6/4 268/6/4 270/6/4
f 269/1/4 270/1/4 271/1/4
f 270/6/4 268/6/4 271/6/4
f 271/6/4 268/6/4 272/6/4
f 269/1/4 271/1/4 273/1/4
f 271/2/4 272/2/4 273/2/4
f 273/2/4 272/2/4 274/2/4
f 269/1/4 273/1/4 275/1/4
f 273/6/4 274/6/4 276/6/4
f 275/1/4 273/1/4 276/1/4
f 275/6/4 276/6/4 277/6/4
f 276/6/4 274/6/4 278/6/4
f 277/6/4 276/6/4 278/6/4
f 279/8/4 280/8/4 283/8/4
f 280/2/4 281/2/4 283/2/4
f 283/2/4 281/2/4 284/2/4
f 281/8/4 282/8/4 285/8/4
f 284/2/4 281/2/4 285/2/4
f 283/7/4 284/7/4 286/7/4
f 279/8/4 283/8/4 286/8/4
f 284/8/4 285/8/4 287/8/4
f 286/7/4 284/7/4 287/7/4
f 279/8/4 286/8/4 288/8/4
f 286/8/4 287/8/4 288/8/4
f 288/8/4 287/8/4 289/8/4
f 287/8/4 285/8/4 290/8/4
f 289/8/4 287/8/4 290/8/4
f 289/1/4 290/1/4 292/1/4
f 290/8/4 285/8/4 293/8/4
f 292/1/4 290/1/4 293/1/4
f 291/8/4 292/8/4 294/8/4
f 292/8/4 293/8/4 294/8/4
f 293/8/4 285/8/4 295/8/4
f 294/8/4 293/8/4 295/8/4
f 291/8/4 294/8/4 296/8/4
f 294/7/4 295/7/4 296/7/4
f 295/8/4 285/8/4 297/8/4
f 296/7/4 295/7/4 297/7/4
f 285/8/4 282/8/4 298/8/4
f 297/8/4 285/8/4 298/8/4
f 291/8/4 296/8/4 299/8/4
f 296/2/4 297/2/4 300/2/4
f 299/8/4 296/8/4 300/8/4
f 297/2/4 298/2/4 300/2/4
f 298/8/4 282/8/4 301/8/4
f 300/2/4 298/2/4 301/2/4
f 301/8/4 282/8/4 302/8/4
f 307/8/5 304/8/5 303/8/5
f 308/8/5 304/8/5 307/8/5
f 309/8/5 306/8/5 305/8/5
f 310/8/5 306/8/5 309/8/5
f 311/4/5 308/4/5 307/4/5
f 311/8/5 307/8/5 303/8/5
f 312/4/5 308/4/5 311/4/5
f 313/4/5 310/4/5 309/4/5
f 314/8/5 306/8/5 310/8/5
f 314/4/5 310/4/5 313/4/5
f 315/5/5 312/5/5 311/5/5
f 315/8/5 311/8/5 303/8/5
f 316/5/5 312/5/5 315/5/5
f 317/5/5 314/5/5 313/5/5
f 318/8/5 306/8/5 314/8/5
f 318/5/5 314/5/5 317/5/5
f 319/4/5 316/4/5 315/4/5
f 319/8/5 315/8/5 303/8/5
f 320/4/5 316/4/5 319/4/5
f 321/4/5 318/4/5 317/4/5
f 322/8/5 306/8/5 318/8/5
f 322/4/5 318/4/5 321/4/5
f 323/5/5 320/5/5 319/5/5
f 323/8/5 319/8/5 303/8/5
f 324/5/5 320/5/5 323/5/5
f 325/5/5 322/5/5 321/5/5
f 326/8/5 306/8/5 322/8/5
f 326/5/5 322/5/5 325/5/5
f 327/4/5 324/4/5 323/4/5
f 327/8/5 323/8/5 303/8/5
f 328/4/5 324/4/5 327/4/5
f 329/4/5 326/4/5 325/4/5
f 330/8/5 306/8/5 326/8/5
f 330/4/5 326/4/5 329/4/5
f 331/5/5 328/5/5 327/5/5
f 331/8/5 327/8/5 303/8/5
f 332/5/5 328/5/5 331/5/5
f 333/5/5 330/5/5 329/5/5
f 334/8/5 306/8/5 330/8/5
f 334/5/5 330/5/5 333/5/5
f 335/8/5 332/8/5 331/8/5
f 335/8/5 331/8/5 303/8/5
f 336/8/5 332/8/5 335/8/5
f 337/8/5 334/8/5 333/8/5
f 338/8/5 306/8/5 334/8/5
f 338/8/5 334/8/5 337/8/5
f 341/1/5 340/1/5 339/1/5
f 342/1/5 340/1/5 341/1/5
f 343/1/5 342/1/5 341/1/5
f 344/1/5 342/1/5 343/1/5
f 345/1/5 344/1/5 343/1/5
f 346/1/5 344/1/5 345/1/5
f 347/1/5 346/1/5 345/1/5
f 348/1/5 346/1/5 347/1/5
f 349/1/5 348/1/5 347/1/5
f 350/1/5 348/1/5 349/1/5
f 351/1/5 350/1/5 349/1/5
f 352/1/5 350/1/5 351/1/5
f 353/1/5 352/1/5 351/1/5
f 354/1/5 352/1/5 353/1/5
f 355/1/5 354/1/5 353/1/5
f 356/1/5 354/1/5 355/1/5
f 361/6/5 358/6/5 357/6/5
f 362/6/5 360/6/5 359/6/5
f 363/6/5 361/6/5 357/6/5
f 364/6/5 361/6/5 363/6/5
f 365/6/5 360/6/5 362/6/5
f 366/6/5 360/6/5 365/6/5
f 371/4/5 368/4/5 367/4/5
f 372/4/5 368/4/5 371/4/5
f 373/4/5 370/4/5 369/4/5
f 374/4/5 370/4/5 373/4/5
f 375/6/5 372/6/5 371/6/5
f 376/6/5 372/6/5 375/6/5
f 377/6/5 374/6/5 373/6/5
f 378/6/5 374/6/5 377/6/5
f 385/4/5 380/4/5 379/4/5
f 386/4/5 380/4/5 385/4/5
f 387/4/5 382/4/5 381/4/5
f 388/4/5 382/4/5 387/4/5
f 389/4/5 384/4/5 383/4/5
f 390/4/5 384/4/5 389/4/5
f 391/8/6 392/8/6 393/8/6
f 393/8/6 392/8/6 394/8/6
f 394/8/6 392/8/6 395/8/6
f 395/8/6 392/8/6 396/8/6
f 391/8/6 393/8/6 397/8/6
f 397/8/6 393/8/6 398/8/6
f 396/8/6 392/8/6 399/8/6
f 399/8/6 392/8/6 400/8/6
f 397/8/6 398/8/6 401/8/6
f 399/8/6 400/8/6 402/8/6
f 401/8/6 398/8/6 403/8/6
f 403/8/6 398/8/6 404/8/6
f 399/8/6 402/8/6 405/8/6
f 405/8/6 402/8/6 406/8/6
f 403/8/6 404/8/6 407/8/6
f 405/8/6 406/8/6 410/8/6
f 408/8/6 409/8/6 411/8/6
f 409/8/6 410/8/6 411/8/6
f 403/8/6 407/8/6 411/8/6
f 407/8/6 408/8/6 411/8/6
f 410/8/6 406/8/6 412/8/6
f 411/8/6 410/8/6 412/8/6
f 413/6/6 414/6/6 419/6/6
f 419/6/6 414/6/6 420/6/6
f 415/6/6 416/6/6 421/6/6
f 421/6/6 416/6/6 422/6/6
f 417/4/6 418/4/6 425/4/6
f 425/4/6 418/4/6 426/4/6
f 423/4/6 424/4/6 427/4/6
f 427/4/6 424/4/6 428/4/6
f 425/6/6 426/6/6 429/6/6
f 429/6/6 426/6/6 430/6/6
f 420/6/6 414/6/6 432/6/6
f 415/6/6 421/6/6 433/6/6
f 427/6/6 428/6/6 435/6/6
f 435/6/6 428/6/6 436/6/6
f 431/6/6 432/6/6 437/6/6
f 414/2/6 415/2/6 438/2/6
f 437/6/6 432/6/6 438/6/6
f 432/6/6 414/6/6 438/6/6
f 433/6/6 434/6/6 439/6/6
f 438/2/6 415/2/6 439/2/6
f 415/6/6 433/6/6 439/6/6
f 439/6/6 434/6/6 440/6/6
f 441/4/6 442/4/6 443/4/6
f 443/4/6 442/4/6 444/4/6
f 445/4/6 446/4/6 449/4/6
f 449/4/6 446/4/6 450/4/6
f 447/4/6 448/4/6 451/4/6
f 451/4/6 448/4/6 452/4/6
