# MagicaVoxel @ Ephtracy

# group
o 

# material
mtllib enemy2.mtl
usemtl palette

# normals
vn -1 0 0
vn 1 0 0
vn 0 0 1
vn 0 0 -1
vn 0 -1 0
vn 0 1 0

# texcoords
vt 0.162109 0.5
vt 0.306641 0.5
vt 0.724609 0.5
vt 0.841797 0.5
vt 0.970703 0.5
vt 0.978516 0.5
vt 0.982422 0.5
vt 0.986328 0.5
vt 0.994141 0.5

# verts
v -0.8 0.2 0.1
v -0.8 0.2 -0.1
v -0.8 0.5 0.1
v -0.8 0.5 -0.1
v -0.7 0.2 0.2
v -0.7 0.2 0.1
v -0.7 0.5 0.2
v -0.7 0.5 0.1
v -0.6 0 0.4
v -0.6 0 -0.4
v -0.6 0.1 0.4
v -0.6 0.1 0.3
v -0.6 0.1 0.2
v -0.6 0.1 0.1
v -0.6 0.1 0
v -0.6 0.1 -0.1
v -0.6 0.1 -0.2
v -0.6 0.1 -0.3
v -0.6 0.1 -0.4
v -0.6 0.2 0.3
v -0.6 0.2 0.2
v -0.6 0.2 0.1
v -0.6 0.2 0
v -0.6 0.2 -0.1
v -0.6 0.2 -0.2
v -0.6 0.2 -0.3
v -0.6 0.2 -0.4
v -0.6 0.4 0.4
v -0.6 0.4 0.2
v -0.6 0.4 -0.1
v -0.6 0.4 -0.4
v -0.6 0.5 0.4
v -0.6 0.5 0.2
v -0.6 0.5 -0.1
v -0.6 0.5 -0.4
v -0.4 0.5 0.4
v -0.4 0.5 -0.4
v -0.4 0.7 0.4
v -0.4 0.7 0.1
v -0.4 0.7 -0.1
v -0.4 0.7 -0.4
v -0.4 0.8 0.2
v -0.4 0.8 0.1
v -0.4 0.8 -0.1
v -0.4 0.8 -0.2
v -0.4 0.9 0.1
v -0.4 0.9 -0.1
v -0.4 1 0.2
v -0.4 1 0.1
v -0.4 1 -0.1
v -0.4 1 -0.2
v 0.1 0 0.4
v 0.1 0 0.3
v 0.1 0 0.2
v 0.1 0 0.1
v 0.1 0 0
v 0.1 0 -0.1
v 0.1 0 -0.2
v 0.1 0 -0.3
v 0.1 0 -0.4
v 0.1 0.1 0.4
v 0.1 0.1 0.3
v 0.1 0.1 0.2
v 0.1 0.1 0.1
v 0.1 0.1 0
v 0.1 0.1 -0.1
v 0.1 0.1 -0.2
v 0.1 0.1 -0.3
v 0.1 0.1 -0.4
v 0.1 0.7 0.1
v 0.1 0.7 -0.1
v 0.1 0.8 0.2
v 0.1 0.8 0.1
v 0.1 0.8 -0.1
v 0.1 0.8 -0.2
v 0.1 0.9 0.1
v 0.1 0.9 -0.1
v 0.1 1 0.2
v 0.1 1 0.1
v 0.1 1 -0.1
v 0.1 1 -0.2
v -0.3 0 0.4
v -0.3 0 0.3
v -0.3 0 0.2
v -0.3 0 0.1
v -0.3 0 0
v -0.3 0 -0.1
v -0.3 0 -0.2
v -0.3 0 -0.3
v -0.3 0 -0.4
v -0.3 0.1 0.4
v -0.3 0.1 0.3
v -0.3 0.1 0.2
v -0.3 0.1 0.1
v -0.3 0.1 0
v -0.3 0.1 -0.1
v -0.3 0.1 -0.2
v -0.3 0.1 -0.3
v -0.3 0.1 -0.4
v -0.3 0.7 0.1
v -0.3 0.7 -0.1
v -0.3 0.8 0.2
v -0.3 0.8 0.1
v -0.3 0.8 -0.1
v -0.3 0.8 -0.2
v -0.3 0.9 0.1
v -0.3 0.9 -0.1
v -0.3 1 0.2
v -0.3 1 0.1
v -0.3 1 -0.1
v -0.3 1 -0.2
v 0.2 0.5 0.4
v 0.2 0.5 -0.4
v 0.2 0.7 0.4
v 0.2 0.7 0.1
v 0.2 0.7 -0.1
v 0.2 0.7 -0.4
v 0.2 0.8 0.2
v 0.2 0.8 0.1
v 0.2 0.8 -0.1
v 0.2 0.8 -0.2
v 0.2 0.9 0.1
v 0.2 0.9 -0.1
v 0.2 1 0.2
v 0.2 1 0.1
v 0.2 1 -0.1
v 0.2 1 -0.2
v 0.4 0 0.4
v 0.4 0 -0.4
v 0.4 0.1 0.4
v 0.4 0.1 0.3
v 0.4 0.1 0.2
v 0.4 0.1 0.1
v 0.4 0.1 0
v 0.4 0.1 -0.1
v 0.4 0.1 -0.2
v 0.4 0.1 -0.3
v 0.4 0.1 -0.4
v 0.4 0.2 0.3
v 0.4 0.2 0.2
v 0.4 0.2 0.1
v 0.4 0.2 0
v 0.4 0.2 -0.1
v 0.4 0.2 -0.2
v 0.4 0.2 -0.3
v 0.4 0.2 -0.4
v 0.4 0.4 0.4
v 0.4 0.4 0.2
v 0.4 0.4 -0.1
v 0.4 0.4 -0.4
v 0.4 0.5 0.4
v 0.4 0.5 0.2
v 0.4 0.5 -0.1
v 0.4 0.5 -0.4
v 0.5 0.2 0.2
v 0.5 0.2 0.1
v 0.5 0.5 0.2
v 0.5 0.5 0.1
v 0.6 0.2 0.1
v 0.6 0.2 -0.1
v 0.6 0.5 0.1
v 0.6 0.5 -0.1
v -0.6 0 0.4
v -0.6 0.1 0.4
v -0.6 0.4 0.4
v -0.6 0.5 0.4
v -0.5 0.1 0.4
v -0.5 0.3 0.4
v -0.5 0.4 0.4
v -0.4 0.5 0.4
v -0.4 0.7 0.4
v -0.3 0 0.4
v -0.3 0.1 0.4
v -0.3 0.3 0.4
v -0.3 0.5 0.4
v -0.3 0.6 0.4
v -0.2 0.3 0.4
v -0.2 0.4 0.4
v -0.2 0.5 0.4
v -0.2 0.6 0.4
v 5.96046e-08 0.3 0.4
v 5.96046e-08 0.4 0.4
v 5.96046e-08 0.5 0.4
v 5.96046e-08 0.6 0.4
v 0.1 0 0.4
v 0.1 0.1 0.4
v 0.1 0.3 0.4
v 0.1 0.5 0.4
v 0.1 0.6 0.4
v 0.2 0.5 0.4
v 0.2 0.7 0.4
v 0.3 0.1 0.4
v 0.3 0.3 0.4
v 0.3 0.4 0.4
v 0.4 0 0.4
v 0.4 0.1 0.4
v 0.4 0.4 0.4
v 0.4 0.5 0.4
v -0.7 0.2 0.2
v -0.7 0.5 0.2
v -0.6 0.2 0.2
v -0.6 0.4 0.2
v -0.6 0.5 0.2
v -0.4 0.8 0.2
v -0.4 1 0.2
v -0.3 0.8 0.2
v -0.3 1 0.2
v 0.1 0.8 0.2
v 0.1 1 0.2
v 0.2 0.8 0.2
v 0.2 1 0.2
v 0.4 0.2 0.2
v 0.4 0.4 0.2
v 0.4 0.5 0.2
v 0.5 0.2 0.2
v 0.5 0.5 0.2
v -0.8 0.2 0.1
v -0.8 0.5 0.1
v -0.7 0.2 0.1
v -0.7 0.5 0.1
v -0.4 0.7 0.1
v -0.4 0.8 0.1
v -0.3 0.7 0.1
v -0.3 0.8 0.1
v 0.1 0.7 0.1
v 0.1 0.8 0.1
v 0.2 0.7 0.1
v 0.2 0.8 0.1
v 0.5 0.2 0.1
v 0.5 0.5 0.1
v 0.6 0.2 0.1
v 0.6 0.5 0.1
v -0.4 0.9 -0.1
v -0.4 1 -0.1
v -0.3 0.9 -0.1
v -0.3 1 -0.1
v 0.1 0.9 -0.1
v 0.1 1 -0.1
v 0.2 0.9 -0.1
v 0.2 1 -0.1
v -0.4 0.9 0.1
v -0.4 1 0.1
v -0.3 0.9 0.1
v -0.3 1 0.1
v 0.1 0.9 0.1
v 0.1 1 0.1
v 0.2 0.9 0.1
v 0.2 1 0.1
v -0.8 0.2 -0.1
v -0.8 0.5 -0.1
v -0.6 0.2 -0.1
v -0.6 0.4 -0.1
v -0.6 0.5 -0.1
v -0.4 0.7 -0.1
v -0.4 0.8 -0.1
v -0.3 0.7 -0.1
v -0.3 0.8 -0.1
v 0.1 0.7 -0.1
v 0.1 0.8 -0.1
v 0.2 0.7 -0.1
v 0.2 0.8 -0.1
v 0.4 0.2 -0.1
v 0.4 0.4 -0.1
v 0.4 0.5 -0.1
v 0.6 0.2 -0.1
v 0.6 0.5 -0.1
v -0.4 0.8 -0.2
v -0.4 1 -0.2
v -0.3 0.8 -0.2
v -0.3 1 -0.2
v 0.1 0.8 -0.2
v 0.1 1 -0.2
v 0.2 0.8 -0.2
v 0.2 1 -0.2
v -0.6 0 -0.4
v -0.6 0.1 -0.4
v -0.6 0.2 -0.4
v -0.6 0.4 -0.4
v -0.6 0.5 -0.4
v -0.5 0.1 -0.4
v -0.5 0.2 -0.4
v -0.5 0.3 -0.4
v -0.5 0.4 -0.4
v -0.4 0.1 -0.4
v -0.4 0.2 -0.4
v -0.4 0.5 -0.4
v -0.4 0.7 -0.4
v -0.3 0 -0.4
v -0.3 0.1 -0.4
v -0.3 0.2 -0.4
v -0.3 0.3 -0.4
v -0.3 0.5 -0.4
v -0.3 0.6 -0.4
v -0.2 0.3 -0.4
v -0.2 0.4 -0.4
v 5.96046e-08 0.3 -0.4
v 5.96046e-08 0.4 -0.4
v 0.1 0 -0.4
v 0.1 0.1 -0.4
v 0.1 0.2 -0.4
v 0.1 0.3 -0.4
v 0.1 0.5 -0.4
v 0.1 0.6 -0.4
v 0.2 0.1 -0.4
v 0.2 0.2 -0.4
v 0.2 0.5 -0.4
v 0.2 0.7 -0.4
v 0.3 0.1 -0.4
v 0.3 0.2 -0.4
v 0.3 0.3 -0.4
v 0.3 0.4 -0.4
v 0.4 0 -0.4
v 0.4 0.1 -0.4
v 0.4 0.2 -0.4
v 0.4 0.4 -0.4
v 0.4 0.5 -0.4
v -0.6 0 0.4
v -0.3 0 0.4
v 0.1 0 0.4
v 0.4 0 0.4
v -0.5 0 0.3
v -0.3 0 0.3
v 0.1 0 0.3
v 0.3 0 0.3
v -0.5 0 0.2
v -0.3 0 0.2
v 0.1 0 0.2
v 0.3 0 0.2
v -0.5 0 0.1
v -0.3 0 0.1
v 0.1 0 0.1
v 0.3 0 0.1
v -0.5 0 0
v -0.3 0 0
v 0.1 0 0
v 0.3 0 0
v -0.5 0 -0.1
v -0.3 0 -0.1
v 0.1 0 -0.1
v 0.3 0 -0.1
v -0.5 0 -0.2
v -0.3 0 -0.2
v 0.1 0 -0.2
v 0.3 0 -0.2
v -0.5 0 -0.3
v -0.3 0 -0.3
v 0.1 0 -0.3
v 0.3 0 -0.3
v -0.6 0 -0.4
v -0.3 0 -0.4
v 0.1 0 -0.4
v 0.4 0 -0.4
v -0.3 0.1 0.4
v 0.1 0.1 0.4
v -0.3 0.1 0.3
v 0.1 0.1 0.3
v -0.3 0.1 0.2
v 0.1 0.1 0.2
v -0.3 0.1 0.1
v 0.1 0.1 0.1
v -0.3 0.1 0
v 0.1 0.1 0
v -0.3 0.1 -0.1
v 0.1 0.1 -0.1
v -0.3 0.1 -0.2
v 0.1 0.1 -0.2
v -0.3 0.1 -0.3
v 0.1 0.1 -0.3
v -0.3 0.1 -0.4
v 0.1 0.1 -0.4
v -0.7 0.2 0.2
v -0.6 0.2 0.2
v 0.4 0.2 0.2
v 0.5 0.2 0.2
v -0.8 0.2 0.1
v -0.7 0.2 0.1
v -0.6 0.2 0.1
v 0.4 0.2 0.1
v 0.5 0.2 0.1
v 0.6 0.2 0.1
v -0.6 0.2 0
v 0.4 0.2 0
v -0.8 0.2 -0.1
v -0.6 0.2 -0.1
v 0.4 0.2 -0.1
v 0.6 0.2 -0.1
v -0.4 0.8 0.2
v -0.3 0.8 0.2
v 0.1 0.8 0.2
v 0.2 0.8 0.2
v -0.4 0.8 0.1
v -0.3 0.8 0.1
v 0.1 0.8 0.1
v 0.2 0.8 0.1
v -0.4 0.8 -0.1
v -0.3 0.8 -0.1
v 0.1 0.8 -0.1
v 0.2 0.8 -0.1
v -0.4 0.8 -0.2
v -0.3 0.8 -0.2
v 0.1 0.8 -0.2
v 0.2 0.8 -0.2
v -0.6 0.5 0.4
v -0.4 0.5 0.4
v 0.2 0.5 0.4
v 0.4 0.5 0.4
v -0.7 0.5 0.2
v -0.6 0.5 0.2
v 0.4 0.5 0.2
v 0.5 0.5 0.2
v -0.8 0.5 0.1
v -0.7 0.5 0.1
v 0.5 0.5 0.1
v 0.6 0.5 0.1
v -0.8 0.5 -0.1
v -0.6 0.5 -0.1
v 0.4 0.5 -0.1
v 0.6 0.5 -0.1
v -0.6 0.5 -0.4
v -0.4 0.5 -0.4
v 0.2 0.5 -0.4
v 0.4 0.5 -0.4
v -0.4 0.7 0.4
v 0.2 0.7 0.4
v -0.4 0.7 0.1
v -0.3 0.7 0.1
v 0.1 0.7 0.1
v 0.2 0.7 0.1
v -0.4 0.7 -0.1
v -0.3 0.7 -0.1
v 0.1 0.7 -0.1
v 0.2 0.7 -0.1
v -0.4 0.7 -0.4
v 0.2 0.7 -0.4
v -0.4 0.9 0.1
v -0.3 0.9 0.1
v 0.1 0.9 0.1
v 0.2 0.9 0.1
v -0.4 0.9 -0.1
v -0.3 0.9 -0.1
v 0.1 0.9 -0.1
v 0.2 0.9 -0.1
v -0.4 1 0.2
v -0.3 1 0.2
v 0.1 1 0.2
v 0.2 1 0.2
v -0.4 1 0.1
v -0.3 1 0.1
v 0.1 1 0.1
v 0.2 1 0.1
v -0.4 1 -0.1
v -0.3 1 -0.1
v 0.1 1 -0.1
v 0.2 1 -0.1
v -0.4 1 -0.2
v -0.3 1 -0.2
v 0.1 1 -0.2
v 0.2 1 -0.2

# faces
f 3/7/1 2/7/1 1/7/1
f 4/7/1 2/7/1 3/7/1
f 7/7/1 6/7/1 5/7/1
f 8/7/1 6/7/1 7/7/1
f 11/9/1 10/9/1 9/9/1
f 12/9/1 10/9/1 11/9/1
f 13/9/1 10/9/1 12/9/1
f 14/9/1 10/9/1 13/9/1
f 15/9/1 10/9/1 14/9/1
f 16/9/1 10/9/1 15/9/1
f 17/9/1 10/9/1 16/9/1
f 18/9/1 10/9/1 17/9/1
f 19/9/1 10/9/1 18/9/1
f 20/7/1 12/7/1 11/7/1
f 20/1/1 13/1/1 12/1/1
f 21/7/1 14/7/1 13/7/1
f 21/1/1 13/1/1 20/1/1
f 22/1/1 15/1/1 14/1/1
f 22/7/1 14/7/1 21/7/1
f 23/7/1 16/7/1 15/7/1
f 23/1/1 15/1/1 22/1/1
f 24/1/1 17/1/1 16/1/1
f 24/7/1 16/7/1 23/7/1
f 25/7/1 18/7/1 17/7/1
f 25/1/1 17/1/1 24/1/1
f 26/1/1 19/1/1 18/1/1
f 26/7/1 18/7/1 25/7/1
f 27/1/1 19/1/1 26/1/1
f 28/7/1 20/7/1 11/7/1
f 28/7/1 21/7/1 20/7/1
f 29/7/1 21/7/1 28/7/1
f 30/7/1 25/7/1 24/7/1
f 30/7/1 27/7/1 26/7/1
f 30/7/1 26/7/1 25/7/1
f 31/7/1 27/7/1 30/7/1
f 32/9/1 29/9/1 28/9/1
f 33/9/1 29/9/1 32/9/1
f 34/9/1 31/9/1 30/9/1
f 35/9/1 31/9/1 34/9/1
f 38/7/1 37/7/1 36/7/1
f 39/7/1 37/7/1 38/7/1
f 40/7/1 37/7/1 39/7/1
f 41/7/1 37/7/1 40/7/1
f 43/7/1 40/7/1 39/7/1
f 44/7/1 40/7/1 43/7/1
f 46/7/1 43/7/1 42/7/1
f 46/7/1 45/7/1 44/7/1
f 46/7/1 44/7/1 43/7/1
f 47/7/1 45/7/1 46/7/1
f 48/7/1 46/7/1 42/7/1
f 49/7/1 46/7/1 48/7/1
f 50/7/1 45/7/1 47/7/1
f 51/7/1 45/7/1 50/7/1
f 61/9/1 53/9/1 52/9/1
f 62/5/1 54/5/1 53/5/1
f 62/9/1 53/9/1 61/9/1
f 63/6/1 55/6/1 54/6/1
f 63/5/1 54/5/1 62/5/1
f 64/5/1 56/5/1 55/5/1
f 64/6/1 55/6/1 63/6/1
f 65/6/1 57/6/1 56/6/1
f 65/5/1 56/5/1 64/5/1
f 66/5/1 58/5/1 57/5/1
f 66/6/1 57/6/1 65/6/1
f 67/6/1 59/6/1 58/6/1
f 67/5/1 58/5/1 66/5/1
f 68/9/1 60/9/1 59/9/1
f 68/6/1 59/6/1 67/6/1
f 69/9/1 60/9/1 68/9/1
f 73/7/1 71/7/1 70/7/1
f 74/7/1 71/7/1 73/7/1
f 76/7/1 73/7/1 72/7/1
f 76/7/1 75/7/1 74/7/1
f 76/7/1 74/7/1 73/7/1
f 77/7/1 75/7/1 76/7/1
f 78/7/1 76/7/1 72/7/1
f 79/7/1 76/7/1 78/7/1
f 80/7/1 75/7/1 77/7/1
f 81/7/1 75/7/1 80/7/1
f 82/9/2 83/9/2 91/9/2
f 83/5/2 84/5/2 92/5/2
f 91/9/2 83/9/2 92/9/2
f 84/6/2 85/6/2 93/6/2
f 92/5/2 84/5/2 93/5/2
f 85/5/2 86/5/2 94/5/2
f 93/6/2 85/6/2 94/6/2
f 86/6/2 87/6/2 95/6/2
f 94/5/2 86/5/2 95/5/2
f 87/5/2 88/5/2 96/5/2
f 95/6/2 87/6/2 96/6/2
f 88/6/2 89/6/2 97/6/2
f 96/5/2 88/5/2 97/5/2
f 89/9/2 90/9/2 98/9/2
f 97/6/2 89/6/2 98/6/2
f 98/9/2 90/9/2 99/9/2
f 100/7/2 101/7/2 103/7/2
f 103/7/2 101/7/2 104/7/2
f 102/7/2 103/7/2 106/7/2
f 104/7/2 105/7/2 106/7/2
f 103/7/2 104/7/2 106/7/2
f 106/7/2 105/7/2 107/7/2
f 102/7/2 106/7/2 108/7/2
f 108/7/2 106/7/2 109/7/2
f 107/7/2 105/7/2 110/7/2
f 110/7/2 105/7/2 111/7/2
f 112/7/2 113/7/2 114/7/2
f 114/7/2 113/7/2 115/7/2
f 115/7/2 113/7/2 116/7/2
f 116/7/2 113/7/2 117/7/2
f 115/7/2 116/7/2 119/7/2
f 119/7/2 116/7/2 120/7/2
f 118/7/2 119/7/2 122/7/2
f 120/7/2 121/7/2 122/7/2
f 119/7/2 120/7/2 122/7/2
f 122/7/2 121/7/2 123/7/2
f 118/7/2 122/7/2 124/7/2
f 124/7/2 122/7/2 125/7/2
f 123/7/2 121/7/2 126/7/2
f 126/7/2 121/7/2 127/7/2
f 128/9/2 129/9/2 130/9/2
f 130/9/2 129/9/2 131/9/2
f 131/9/2 129/9/2 132/9/2
f 132/9/2 129/9/2 133/9/2
f 133/9/2 129/9/2 134/9/2
f 134/9/2 129/9/2 135/9/2
f 135/9/2 129/9/2 136/9/2
f 136/9/2 129/9/2 137/9/2
f 137/9/2 129/9/2 138/9/2
f 130/7/2 131/7/2 139/7/2
f 131/1/2 132/1/2 139/1/2
f 132/7/2 133/7/2 140/7/2
f 139/1/2 132/1/2 140/1/2
f 133/1/2 134/1/2 141/1/2
f 140/7/2 133/7/2 141/7/2
f 134/7/2 135/7/2 142/7/2
f 141/1/2 134/1/2 142/1/2
f 135/1/2 136/1/2 143/1/2
f 142/7/2 135/7/2 143/7/2
f 136/7/2 137/7/2 144/7/2
f 143/1/2 136/1/2 144/1/2
f 137/1/2 138/1/2 145/1/2
f 144/7/2 137/7/2 145/7/2
f 145/1/2 138/1/2 146/1/2
f 130/7/2 139/7/2 147/7/2
f 139/7/2 140/7/2 147/7/2
f 147/7/2 140/7/2 148/7/2
f 143/7/2 144/7/2 149/7/2
f 145/7/2 146/7/2 149/7/2
f 144/7/2 145/7/2 149/7/2
f 149/7/2 146/7/2 150/7/2
f 147/9/2 148/9/2 151/9/2
f 151/9/2 148/9/2 152/9/2
f 149/9/2 150/9/2 153/9/2
f 153/9/2 150/9/2 154/9/2
f 155/7/2 156/7/2 157/7/2
f 157/7/2 156/7/2 158/7/2
f 159/7/2 160/7/2 161/7/2
f 161/7/2 160/7/2 162/7/2
f 167/9/3 164/9/3 163/9/3
f 167/7/3 165/7/3 164/7/3
f 168/7/3 165/7/3 167/7/3
f 169/9/3 166/9/3 165/9/3
f 169/7/3 165/7/3 168/7/3
f 170/9/3 169/9/3 168/9/3
f 170/9/3 166/9/3 169/9/3
f 172/9/3 167/9/3 163/9/3
f 173/8/3 168/8/3 167/8/3
f 173/9/3 167/9/3 172/9/3
f 174/9/3 170/9/3 168/9/3
f 174/8/3 168/8/3 173/8/3
f 175/7/3 171/7/3 170/7/3
f 175/9/3 170/9/3 174/9/3
f 176/7/3 171/7/3 175/7/3
f 177/3/3 174/3/3 173/3/3
f 177/9/3 175/9/3 174/9/3
f 178/9/3 175/9/3 177/9/3
f 179/3/3 176/3/3 175/3/3
f 179/9/3 175/9/3 178/9/3
f 180/7/3 171/7/3 176/7/3
f 180/3/3 176/3/3 179/3/3
f 181/3/3 178/3/3 177/3/3
f 181/3/3 177/3/3 173/3/3
f 182/9/3 179/9/3 178/9/3
f 182/3/3 178/3/3 181/3/3
f 183/4/3 180/4/3 179/4/3
f 183/9/3 179/9/3 182/9/3
f 184/7/3 171/7/3 180/7/3
f 184/4/3 180/4/3 183/4/3
f 186/3/3 181/3/3 173/3/3
f 187/9/3 183/9/3 182/9/3
f 187/9/3 182/9/3 181/9/3
f 187/3/3 181/3/3 186/3/3
f 188/3/3 184/3/3 183/3/3
f 188/9/3 183/9/3 187/9/3
f 189/7/3 171/7/3 184/7/3
f 189/3/3 184/3/3 188/3/3
f 190/9/3 188/9/3 187/9/3
f 190/7/3 189/7/3 188/7/3
f 191/7/3 171/7/3 189/7/3
f 191/7/3 189/7/3 190/7/3
f 192/9/3 186/9/3 185/9/3
f 192/8/3 187/8/3 186/8/3
f 193/9/3 190/9/3 187/9/3
f 193/8/3 187/8/3 192/8/3
f 194/9/3 190/9/3 193/9/3
f 195/9/3 192/9/3 185/9/3
f 196/7/3 193/7/3 192/7/3
f 196/9/3 192/9/3 195/9/3
f 196/7/3 194/7/3 193/7/3
f 197/9/3 190/9/3 194/9/3
f 197/7/3 194/7/3 196/7/3
f 198/9/3 190/9/3 197/9/3
f 201/7/3 200/7/3 199/7/3
f 202/7/3 200/7/3 201/7/3
f 203/7/3 200/7/3 202/7/3
f 206/7/3 205/7/3 204/7/3
f 207/7/3 205/7/3 206/7/3
f 210/7/3 209/7/3 208/7/3
f 211/7/3 209/7/3 210/7/3
f 215/7/3 213/7/3 212/7/3
f 215/7/3 214/7/3 213/7/3
f 216/7/3 214/7/3 215/7/3
f 219/7/3 218/7/3 217/7/3
f 220/7/3 218/7/3 219/7/3
f 223/7/3 222/7/3 221/7/3
f 224/7/3 222/7/3 223/7/3
f 227/7/3 226/7/3 225/7/3
f 228/7/3 226/7/3 227/7/3
f 231/7/3 230/7/3 229/7/3
f 232/7/3 230/7/3 231/7/3
f 235/7/3 234/7/3 233/7/3
f 236/7/3 234/7/3 235/7/3
f 239/7/3 238/7/3 237/7/3
f 240/7/3 238/7/3 239/7/3
f 241/7/4 242/7/4 243/7/4
f 243/7/4 242/7/4 244/7/4
f 245/7/4 246/7/4 247/7/4
f 247/7/4 246/7/4 248/7/4
f 249/7/4 250/7/4 251/7/4
f 251/7/4 250/7/4 252/7/4
f 252/7/4 250/7/4 253/7/4
f 254/7/4 255/7/4 256/7/4
f 256/7/4 255/7/4 257/7/4
f 258/7/4 259/7/4 260/7/4
f 260/7/4 259/7/4 261/7/4
f 262/7/4 263/7/4 265/7/4
f 263/7/4 264/7/4 265/7/4
f 265/7/4 264/7/4 266/7/4
f 267/7/4 268/7/4 269/7/4
f 269/7/4 268/7/4 270/7/4
f 271/7/4 272/7/4 273/7/4
f 273/7/4 272/7/4 274/7/4
f 275/9/4 276/9/4 280/9/4
f 276/1/4 277/1/4 280/1/4
f 277/7/4 278/7/4 281/7/4
f 280/1/4 277/1/4 281/1/4
f 281/7/4 278/7/4 282/7/4
f 278/9/4 279/9/4 283/9/4
f 282/7/4 278/7/4 283/7/4
f 281/8/4 282/8/4 284/8/4
f 275/9/4 280/9/4 284/9/4
f 280/8/4 281/8/4 284/8/4
f 284/8/4 282/8/4 285/8/4
f 283/9/4 279/9/4 286/9/4
f 282/9/4 283/9/4 286/9/4
f 275/9/4 284/9/4 288/9/4
f 284/1/4 285/1/4 289/1/4
f 288/9/4 284/9/4 289/9/4
f 285/8/4 282/8/4 290/8/4
f 289/1/4 285/1/4 290/1/4
f 282/9/4 286/9/4 291/9/4
f 290/8/4 282/8/4 291/8/4
f 286/7/4 287/7/4 292/7/4
f 291/9/4 286/9/4 292/9/4
f 292/7/4 287/7/4 293/7/4
f 290/3/4 291/3/4 294/3/4
f 289/3/4 290/3/4 294/3/4
f 291/9/4 292/9/4 294/9/4
f 294/9/4 292/9/4 295/9/4
f 289/3/4 294/3/4 296/3/4
f 294/3/4 295/3/4 296/3/4
f 295/9/4 292/9/4 297/9/4
f 296/3/4 295/3/4 297/3/4
f 289/3/4 296/3/4 299/3/4
f 299/3/4 296/3/4 300/3/4
f 296/9/4 297/9/4 301/9/4
f 300/3/4 296/3/4 301/3/4
f 292/3/4 293/3/4 302/3/4
f 301/9/4 297/9/4 302/9/4
f 297/9/4 292/9/4 302/9/4
f 293/7/4 287/7/4 303/7/4
f 302/3/4 293/3/4 303/3/4
f 298/9/4 299/9/4 304/9/4
f 299/1/4 300/1/4 304/1/4
f 300/8/4 301/8/4 305/8/4
f 304/1/4 300/1/4 305/1/4
f 301/9/4 302/9/4 306/9/4
f 302/7/4 303/7/4 306/7/4
f 303/7/4 287/7/4 307/7/4
f 306/7/4 303/7/4 307/7/4
f 298/9/4 304/9/4 308/9/4
f 304/8/4 305/8/4 308/8/4
f 305/8/4 301/8/4 309/8/4
f 308/8/4 305/8/4 309/8/4
f 301/9/4 306/9/4 310/9/4
f 309/8/4 301/8/4 310/8/4
f 310/9/4 306/9/4 311/9/4
f 298/9/4 308/9/4 312/9/4
f 308/1/4 309/1/4 313/1/4
f 312/9/4 308/9/4 313/9/4
f 309/7/4 310/7/4 314/7/4
f 313/1/4 309/1/4 314/1/4
f 310/7/4 311/7/4 314/7/4
f 311/9/4 306/9/4 315/9/4
f 314/7/4 311/7/4 315/7/4
f 315/9/4 306/9/4 316/9/4
f 321/9/5 318/9/5 317/9/5
f 322/9/5 318/9/5 321/9/5
f 323/9/5 320/9/5 319/9/5
f 324/9/5 320/9/5 323/9/5
f 325/5/5 322/5/5 321/5/5
f 325/9/5 321/9/5 317/9/5
f 326/5/5 322/5/5 325/5/5
f 327/5/5 324/5/5 323/5/5
f 328/9/5 320/9/5 324/9/5
f 328/5/5 324/5/5 327/5/5
f 329/6/5 326/6/5 325/6/5
f 329/9/5 325/9/5 317/9/5
f 330/6/5 326/6/5 329/6/5
f 331/6/5 328/6/5 327/6/5
f 332/9/5 320/9/5 328/9/5
f 332/6/5 328/6/5 331/6/5
f 333/5/5 330/5/5 329/5/5
f 333/9/5 329/9/5 317/9/5
f 334/5/5 330/5/5 333/5/5
f 335/5/5 332/5/5 331/5/5
f 336/9/5 320/9/5 332/9/5
f 336/5/5 332/5/5 335/5/5
f 337/6/5 334/6/5 333/6/5
f 337/9/5 333/9/5 317/9/5
f 338/6/5 334/6/5 337/6/5
f 339/6/5 336/6/5 335/6/5
f 340/9/5 320/9/5 336/9/5
f 340/6/5 336/6/5 339/6/5
f 341/5/5 338/5/5 337/5/5
f 341/9/5 337/9/5 317/9/5
f 342/5/5 338/5/5 341/5/5
f 343/5/5 340/5/5 339/5/5
f 344/9/5 320/9/5 340/9/5
f 344/5/5 340/5/5 343/5/5
f 345/6/5 342/6/5 341/6/5
f 345/9/5 341/9/5 317/9/5
f 346/6/5 342/6/5 345/6/5
f 347/6/5 344/6/5 343/6/5
f 348/9/5 320/9/5 344/9/5
f 348/6/5 344/6/5 347/6/5
f 349/9/5 346/9/5 345/9/5
f 349/9/5 345/9/5 317/9/5
f 350/9/5 346/9/5 349/9/5
f 351/9/5 348/9/5 347/9/5
f 352/9/5 320/9/5 348/9/5
f 352/9/5 348/9/5 351/9/5
f 355/3/5 354/3/5 353/3/5
f 356/3/5 354/3/5 355/3/5
f 357/3/5 356/3/5 355/3/5
f 358/3/5 356/3/5 357/3/5
f 359/3/5 358/3/5 357/3/5
f 360/3/5 358/3/5 359/3/5
f 361/3/5 360/3/5 359/3/5
f 362/3/5 360/3/5 361/3/5
f 363/3/5 362/3/5 361/3/5
f 364/3/5 362/3/5 363/3/5
f 365/3/5 364/3/5 363/3/5
f 366/3/5 364/3/5 365/3/5
f 367/3/5 366/3/5 365/3/5
f 368/3/5 366/3/5 367/3/5
f 369/3/5 368/3/5 367/3/5
f 370/3/5 368/3/5 369/3/5
f 376/7/5 372/7/5 371/7/5
f 377/7/5 372/7/5 376/7/5
f 378/7/5 374/7/5 373/7/5
f 379/7/5 374/7/5 378/7/5
f 381/7/5 377/7/5 376/7/5
f 381/7/5 376/7/5 375/7/5
f 382/7/5 380/7/5 379/7/5
f 382/7/5 379/7/5 378/7/5
f 383/7/5 381/7/5 375/7/5
f 384/7/5 381/7/5 383/7/5
f 385/7/5 380/7/5 382/7/5
f 386/7/5 380/7/5 385/7/5
f 391/7/5 388/7/5 387/7/5
f 392/7/5 388/7/5 391/7/5
f 393/7/5 390/7/5 389/7/5
f 394/7/5 390/7/5 393/7/5
f 399/7/5 396/7/5 395/7/5
f 400/7/5 396/7/5 399/7/5
f 401/7/5 398/7/5 397/7/5
f 402/7/5 398/7/5 401/7/5
f 403/9/6 404/9/6 408/9/6
f 405/9/6 406/9/6 409/9/6
f 407/7/6 408/7/6 412/7/6
f 409/7/6 410/7/6 413/7/6
f 411/7/6 412/7/6 415/7/6
f 408/9/6 404/9/6 416/9/6
f 415/7/6 412/7/6 416/7/6
f 412/7/6 408/7/6 416/7/6
f 413/7/6 414/7/6 417/7/6
f 405/9/6 409/9/6 417/9/6
f 409/7/6 413/7/6 417/7/6
f 417/7/6 414/7/6 418/7/6
f 416/9/6 404/9/6 419/9/6
f 419/9/6 404/9/6 420/9/6
f 405/9/6 417/9/6 421/9/6
f 421/9/6 417/9/6 422/9/6
f 423/7/6 424/7/6 425/7/6
f 425/7/6 424/7/6 426/7/6
f 426/7/6 424/7/6 427/7/6
f 427/7/6 424/7/6 428/7/6
f 426/7/6 427/7/6 430/7/6
f 430/7/6 427/7/6 431/7/6
f 429/7/6 430/7/6 433/7/6
f 431/7/6 432/7/6 433/7/6
f 430/7/6 431/7/6 433/7/6
f 433/7/6 432/7/6 434/7/6
f 435/7/6 436/7/6 439/7/6
f 439/7/6 436/7/6 440/7/6
f 437/7/6 438/7/6 441/7/6
f 441/7/6 438/7/6 442/7/6
f 443/7/6 444/7/6 447/7/6
f 447/7/6 444/7/6 448/7/6
f 445/7/6 446/7/6 449/7/6
f 449/7/6 446/7/6 450/7/6
f 451/7/6 452/7/6 455/7/6
f 455/7/6 452/7/6 456/7/6
f 453/7/6 454/7/6 457/7/6
f 457/7/6 454/7/6 458/7/6
