# MagicaVoxel @ Ephtracy

# group
o 

# material
mtllib shield3.mtl
usemtl palette

# normals
vn -1 0 0
vn 1 0 0
vn 0 0 1
vn 0 0 -1
vn 0 -1 0
vn 0 1 0

# texcoords
vt 0.0136719 0.5
vt 0.337891 0.5
vt 0.345703 0.5
vt 0.369141 0.5
vt 0.775391 0.5
vt 0.845703 0.5
vt 0.857422 0.5
vt 0.974609 0.5
vt 0.982422 0.5

# verts
v -0.0999999 0.3 -0.1
v -0.0999999 0.3 -0.2
v -0.0999999 0.3 -0.3
v -0.0999999 0.3 -0.4
v -0.0999999 0.5 -0.1
v -0.0999999 0.5 -0.2
v -0.0999999 0.5 -0.3
v -0.0999999 0.5 -0.4
v 7.45058e-08 0 -0.1
v 7.45058e-08 0 -0.2
v 7.45058e-08 0 -0.3
v 7.45058e-08 0 -0.4
v 7.45058e-08 0.1 -7.45058e-08
v 7.45058e-08 0.1 -0.1
v 7.45058e-08 0.1 -0.2
v 7.45058e-08 0.1 -0.3
v 7.45058e-08 0.1 -0.4
v 7.45058e-08 0.1 -0.5
v 7.45058e-08 0.2 0.0999999
v 7.45058e-08 0.2 -7.45058e-08
v 7.45058e-08 0.2 -0.1
v 7.45058e-08 0.2 -0.4
v 7.45058e-08 0.2 -0.5
v 7.45058e-08 0.2 -0.6
v 7.45058e-08 0.3 -7.45058e-08
v 7.45058e-08 0.3 -0.1
v 7.45058e-08 0.3 -0.2
v 7.45058e-08 0.3 -0.3
v 7.45058e-08 0.3 -0.4
v 7.45058e-08 0.3 -0.5
v 7.45058e-08 0.4 0.0999999
v 7.45058e-08 0.4 -7.45058e-08
v 7.45058e-08 0.4 -0.5
v 7.45058e-08 0.4 -0.6
v 7.45058e-08 0.5 0.0999999
v 7.45058e-08 0.5 -7.45058e-08
v 7.45058e-08 0.5 -0.1
v 7.45058e-08 0.5 -0.2
v 7.45058e-08 0.5 -0.3
v 7.45058e-08 0.5 -0.4
v 7.45058e-08 0.5 -0.5
v 7.45058e-08 0.5 -0.6
v 7.45058e-08 0.6 -7.45058e-08
v 7.45058e-08 0.6 -0.1
v 7.45058e-08 0.6 -0.4
v 7.45058e-08 0.6 -0.5
v 7.45058e-08 0.7 -7.45058e-08
v 7.45058e-08 0.7 -0.1
v 7.45058e-08 0.7 -0.4
v 7.45058e-08 0.7 -0.5
v 0.1 0 -0.1
v 0.1 0 -0.2
v 0.1 0 -0.3
v 0.1 0 -0.4
v 0.1 0.1 -7.45058e-08
v 0.1 0.1 -0.1
v 0.1 0.1 -0.2
v 0.1 0.1 -0.3
v 0.1 0.1 -0.4
v 0.1 0.1 -0.5
v 0.1 0.2 0.0999999
v 0.1 0.2 -7.45058e-08
v 0.1 0.2 -0.1
v 0.1 0.2 -0.4
v 0.1 0.2 -0.5
v 0.1 0.2 -0.6
v 0.1 0.3 -7.45058e-08
v 0.1 0.3 -0.5
v 0.1 0.4 0.0999999
v 0.1 0.4 -7.45058e-08
v 0.1 0.4 -0.5
v 0.1 0.4 -0.6
v 0.1 0.5 0.0999999
v 0.1 0.5 -7.45058e-08
v 0.1 0.5 -0.1
v 0.1 0.5 -0.4
v 0.1 0.5 -0.5
v 0.1 0.5 -0.6
v 0.1 0.6 -7.45058e-08
v 0.1 0.6 -0.1
v 0.1 0.6 -0.4
v 0.1 0.6 -0.5
v 0.1 0.7 -7.45058e-08
v 0.1 0.7 -0.1
v 0.1 0.7 -0.4
v 0.1 0.7 -0.5
v 0.2 0.1 -0.1
v 0.2 0.1 -0.4
v 0.2 0.2 -7.45058e-08
v 0.2 0.2 -0.1
v 0.2 0.2 -0.2
v 0.2 0.2 -0.3
v 0.2 0.2 -0.4
v 0.2 0.2 -0.5
v 0.2 0.3 -7.45058e-08
v 0.2 0.3 -0.1
v 0.2 0.3 -0.2
v 0.2 0.3 -0.3
v 0.2 0.3 -0.4
v 0.2 0.3 -0.5
v 0.2 0.4 -0.1
v 0.2 0.4 -0.2
v 0.2 0.4 -0.3
v 0.2 0.4 -0.4
v 0.2 0.5 -7.45058e-08
v 0.2 0.5 -0.1
v 0.2 0.5 -0.2
v 0.2 0.5 -0.3
v 0.2 0.5 -0.4
v 0.2 0.5 -0.5
v 0.2 0.6 -0.1
v 0.2 0.6 -0.4
v 7.45058e-08 0.2 0.0999999
v 7.45058e-08 0.4 0.0999999
v 7.45058e-08 0.5 0.0999999
v 0.1 0.2 0.0999999
v 0.1 0.4 0.0999999
v 0.1 0.5 0.0999999
v 7.45058e-08 0.1 -7.45058e-08
v 7.45058e-08 0.2 -7.45058e-08
v 7.45058e-08 0.5 -7.45058e-08
v 7.45058e-08 0.6 -7.45058e-08
v 7.45058e-08 0.7 -7.45058e-08
v 0.1 0.1 -7.45058e-08
v 0.1 0.2 -7.45058e-08
v 0.1 0.3 -7.45058e-08
v 0.1 0.4 -7.45058e-08
v 0.1 0.5 -7.45058e-08
v 0.1 0.6 -7.45058e-08
v 0.1 0.7 -7.45058e-08
v 0.2 0.2 -7.45058e-08
v 0.2 0.3 -7.45058e-08
v 0.2 0.5 -7.45058e-08
v -0.0999999 0.3 -0.1
v -0.0999999 0.5 -0.1
v 7.45058e-08 0 -0.1
v 7.45058e-08 0.1 -0.1
v 7.45058e-08 0.3 -0.1
v 7.45058e-08 0.5 -0.1
v 0.1 0 -0.1
v 0.1 0.1 -0.1
v 0.1 0.2 -0.1
v 0.1 0.5 -0.1
v 0.1 0.6 -0.1
v 0.2 0.1 -0.1
v 0.2 0.2 -0.1
v 0.2 0.5 -0.1
v 0.2 0.6 -0.1
v -0.0999999 0.3 -0.3
v -0.0999999 0.5 -0.3
v 7.45058e-08 0.3 -0.3
v 7.45058e-08 0.5 -0.3
v -0.0999999 0.3 -0.2
v -0.0999999 0.5 -0.2
v 7.45058e-08 0.3 -0.2
v 7.45058e-08 0.5 -0.2
v -0.0999999 0.3 -0.4
v -0.0999999 0.5 -0.4
v 7.45058e-08 0 -0.4
v 7.45058e-08 0.1 -0.4
v 7.45058e-08 0.3 -0.4
v 7.45058e-08 0.5 -0.4
v 0.1 0 -0.4
v 0.1 0.1 -0.4
v 0.1 0.2 -0.4
v 0.1 0.5 -0.4
v 0.1 0.6 -0.4
v 0.2 0.1 -0.4
v 0.2 0.2 -0.4
v 0.2 0.5 -0.4
v 0.2 0.6 -0.4
v 7.45058e-08 0.1 -0.5
v 7.45058e-08 0.2 -0.5
v 7.45058e-08 0.5 -0.5
v 7.45058e-08 0.6 -0.5
v 7.45058e-08 0.7 -0.5
v 0.1 0.1 -0.5
v 0.1 0.2 -0.5
v 0.1 0.3 -0.5
v 0.1 0.4 -0.5
v 0.1 0.5 -0.5
v 0.1 0.6 -0.5
v 0.1 0.7 -0.5
v 0.2 0.2 -0.5
v 0.2 0.3 -0.5
v 0.2 0.5 -0.5
v 7.45058e-08 0.2 -0.6
v 7.45058e-08 0.4 -0.6
v 7.45058e-08 0.5 -0.6
v 0.1 0.2 -0.6
v 0.1 0.4 -0.6
v 0.1 0.5 -0.6
v 7.45058e-08 0 -0.1
v 0.1 0 -0.1
v 7.45058e-08 0 -0.2
v 0.1 0 -0.2
v 7.45058e-08 0 -0.3
v 0.1 0 -0.3
v 7.45058e-08 0 -0.4
v 0.1 0 -0.4
v 7.45058e-08 0.1 -7.45058e-08
v 0.1 0.1 -7.45058e-08
v 7.45058e-08 0.1 -0.1
v 0.1 0.1 -0.1
v 0.2 0.1 -0.1
v 0.1 0.1 -0.2
v 0.1 0.1 -0.3
v 7.45058e-08 0.1 -0.4
v 0.1 0.1 -0.4
v 0.2 0.1 -0.4
v 7.45058e-08 0.1 -0.5
v 0.1 0.1 -0.5
v 7.45058e-08 0.2 0.0999999
v 0.1 0.2 0.0999999
v 7.45058e-08 0.2 -7.45058e-08
v 0.1 0.2 -7.45058e-08
v 0.2 0.2 -7.45058e-08
v 0.1 0.2 -0.1
v 0.2 0.2 -0.1
v 0.1 0.2 -0.4
v 0.2 0.2 -0.4
v 7.45058e-08 0.2 -0.5
v 0.1 0.2 -0.5
v 0.2 0.2 -0.5
v 7.45058e-08 0.2 -0.6
v 0.1 0.2 -0.6
v -0.0999999 0.3 -0.1
v 7.45058e-08 0.3 -0.1
v -0.0999999 0.3 -0.2
v 7.45058e-08 0.3 -0.2
v -0.0999999 0.3 -0.3
v 7.45058e-08 0.3 -0.3
v -0.0999999 0.3 -0.4
v 7.45058e-08 0.3 -0.4
v 7.45058e-08 0.5 0.0999999
v 0.1 0.5 0.0999999
v 7.45058e-08 0.5 -7.45058e-08
v 0.1 0.5 -7.45058e-08
v 0.2 0.5 -7.45058e-08
v -0.0999999 0.5 -0.1
v 7.45058e-08 0.5 -0.1
v 0.1 0.5 -0.1
v 0.2 0.5 -0.1
v -0.0999999 0.5 -0.2
v 7.45058e-08 0.5 -0.2
v -0.0999999 0.5 -0.3
v 7.45058e-08 0.5 -0.3
v -0.0999999 0.5 -0.4
v 7.45058e-08 0.5 -0.4
v 0.1 0.5 -0.4
v 0.2 0.5 -0.4
v 7.45058e-08 0.5 -0.5
v 0.1 0.5 -0.5
v 0.2 0.5 -0.5
v 7.45058e-08 0.5 -0.6
v 0.1 0.5 -0.6
v 0.1 0.6 -0.1
v 0.2 0.6 -0.1
v 0.1 0.6 -0.4
v 0.2 0.6 -0.4
v 7.45058e-08 0.7 -7.45058e-08
v 0.1 0.7 -7.45058e-08
v 7.45058e-08 0.7 -0.1
v 0.1 0.7 -0.1
v 7.45058e-08 0.7 -0.4
v 0.1 0.7 -0.4
v 7.45058e-08 0.7 -0.5
v 0.1 0.7 -0.5

# faces
f 5/7/1 2/7/1 1/7/1
f 6/7/1 2/7/1 5/7/1
f 7/7/1 4/7/1 3/7/1
f 8/7/1 4/7/1 7/7/1
f 14/9/1 10/9/1 9/9/1
f 15/8/1 11/8/1 10/8/1
f 15/9/1 10/9/1 14/9/1
f 16/9/1 12/9/1 11/9/1
f 16/8/1 11/8/1 15/8/1
f 17/9/1 12/9/1 16/9/1
f 20/9/1 14/9/1 13/9/1
f 21/2/1 15/2/1 14/2/1
f 21/2/1 16/2/1 15/2/1
f 21/9/1 14/9/1 20/9/1
f 21/2/1 17/2/1 16/2/1
f 22/9/1 18/9/1 17/9/1
f 22/2/1 17/2/1 21/2/1
f 23/9/1 18/9/1 22/9/1
f 25/8/1 20/8/1 19/8/1
f 25/2/1 21/2/1 20/2/1
f 25/2/1 23/2/1 22/2/1
f 25/2/1 22/2/1 21/2/1
f 26/2/1 23/2/1 25/2/1
f 27/2/1 23/2/1 26/2/1
f 28/2/1 23/2/1 27/2/1
f 29/2/1 23/2/1 28/2/1
f 30/8/1 24/8/1 23/8/1
f 30/2/1 23/2/1 29/2/1
f 31/8/1 25/8/1 19/8/1
f 32/4/1 26/4/1 25/4/1
f 32/8/1 25/8/1 31/8/1
f 33/8/1 24/8/1 30/8/1
f 33/4/1 30/4/1 29/4/1
f 34/8/1 24/8/1 33/8/1
f 35/9/1 32/9/1 31/9/1
f 36/4/1 26/4/1 32/4/1
f 36/9/1 32/9/1 35/9/1
f 37/4/1 26/4/1 36/4/1
f 38/4/1 28/4/1 27/4/1
f 39/4/1 28/4/1 38/4/1
f 40/4/1 33/4/1 29/4/1
f 41/9/1 34/9/1 33/9/1
f 41/4/1 33/4/1 40/4/1
f 42/9/1 34/9/1 41/9/1
f 43/8/1 37/8/1 36/8/1
f 44/2/1 39/2/1 38/2/1
f 44/8/1 37/8/1 43/8/1
f 44/2/1 40/2/1 39/2/1
f 44/2/1 38/2/1 37/2/1
f 45/8/1 41/8/1 40/8/1
f 45/2/1 40/2/1 44/2/1
f 46/8/1 41/8/1 45/8/1
f 47/9/1 44/9/1 43/9/1
f 48/8/1 45/8/1 44/8/1
f 48/9/1 44/9/1 47/9/1
f 49/9/1 46/9/1 45/9/1
f 49/8/1 45/8/1 48/8/1
f 50/9/1 46/9/1 49/9/1
f 51/9/2 52/9/2 56/9/2
f 52/8/2 53/8/2 57/8/2
f 56/9/2 52/9/2 57/9/2
f 53/9/2 54/9/2 58/9/2
f 57/8/2 53/8/2 58/8/2
f 58/9/2 54/9/2 59/9/2
f 55/9/2 56/9/2 62/9/2
f 62/9/2 56/9/2 63/9/2
f 59/9/2 60/9/2 64/9/2
f 64/9/2 60/9/2 65/9/2
f 61/8/2 62/8/2 67/8/2
f 65/8/2 66/8/2 68/8/2
f 61/8/2 67/8/2 69/8/2
f 69/8/2 67/8/2 70/8/2
f 68/8/2 66/8/2 71/8/2
f 71/8/2 66/8/2 72/8/2
f 69/9/2 70/9/2 73/9/2
f 73/9/2 70/9/2 74/9/2
f 71/9/2 72/9/2 77/9/2
f 77/9/2 72/9/2 78/9/2
f 74/8/2 75/8/2 79/8/2
f 79/8/2 75/8/2 80/8/2
f 76/8/2 77/8/2 81/8/2
f 81/8/2 77/8/2 82/8/2
f 79/9/2 80/9/2 83/9/2
f 80/8/2 81/8/2 84/8/2
f 83/9/2 80/9/2 84/9/2
f 81/9/2 82/9/2 85/9/2
f 84/8/2 81/8/2 85/8/2
f 85/9/2 82/9/2 86/9/2
f 87/3/2 88/3/2 90/3/2
f 90/3/2 88/3/2 91/3/2
f 91/3/2 88/3/2 92/3/2
f 92/3/2 88/3/2 93/3/2
f 89/3/2 90/3/2 95/3/2
f 90/5/2 91/5/2 96/5/2
f 95/3/2 90/3/2 96/3/2
f 91/6/2 92/6/2 97/6/2
f 96/5/2 91/5/2 97/5/2
f 92/5/2 93/5/2 98/5/2
f 97/6/2 92/6/2 98/6/2
f 93/3/2 94/3/2 99/3/2
f 98/5/2 93/5/2 99/5/2
f 99/3/2 94/3/2 100/3/2
f 95/5/2 96/5/2 101/5/2
f 96/1/2 97/1/2 101/1/2
f 97/5/2 98/5/2 102/5/2
f 101/1/2 97/1/2 102/1/2
f 98/1/2 99/1/2 103/1/2
f 102/5/2 98/5/2 103/5/2
f 99/5/2 100/5/2 104/5/2
f 103/1/2 99/1/2 104/1/2
f 95/5/2 101/5/2 105/5/2
f 101/5/2 102/5/2 105/5/2
f 105/5/2 102/5/2 106/5/2
f 102/1/2 103/1/2 107/1/2
f 106/5/2 102/5/2 107/5/2
f 103/5/2 104/5/2 108/5/2
f 107/1/2 103/1/2 108/1/2
f 104/5/2 100/5/2 109/5/2
f 108/5/2 104/5/2 109/5/2
f 109/5/2 100/5/2 110/5/2
f 107/5/2 108/5/2 111/5/2
f 108/5/2 109/5/2 111/5/2
f 106/5/2 107/5/2 111/5/2
f 111/5/2 109/5/2 112/5/2
f 116/8/3 114/8/3 113/8/3
f 117/9/3 115/9/3 114/9/3
f 117/8/3 114/8/3 116/8/3
f 118/9/3 115/9/3 117/9/3
f 124/9/3 120/9/3 119/9/3
f 125/9/3 120/9/3 124/9/3
f 128/8/3 122/8/3 121/8/3
f 129/9/3 123/9/3 122/9/3
f 129/8/3 122/8/3 128/8/3
f 130/9/3 123/9/3 129/9/3
f 131/3/3 126/3/3 125/3/3
f 132/5/3 128/5/3 127/5/3
f 132/3/3 126/3/3 131/3/3
f 132/5/3 127/5/3 126/5/3
f 133/5/3 128/5/3 132/5/3
f 138/7/3 135/7/3 134/7/3
f 139/7/3 135/7/3 138/7/3
f 140/9/3 137/9/3 136/9/3
f 141/9/3 137/9/3 140/9/3
f 145/3/3 142/3/3 141/3/3
f 146/3/3 142/3/3 145/3/3
f 147/5/3 144/5/3 143/5/3
f 148/5/3 144/5/3 147/5/3
f 151/7/3 150/7/3 149/7/3
f 152/7/3 150/7/3 151/7/3
f 153/7/4 154/7/4 155/7/4
f 155/7/4 154/7/4 156/7/4
f 157/7/4 158/7/4 161/7/4
f 161/7/4 158/7/4 162/7/4
f 159/9/4 160/9/4 163/9/4
f 163/9/4 160/9/4 164/9/4
f 164/3/4 165/3/4 168/3/4
f 168/3/4 165/3/4 169/3/4
f 166/5/4 167/5/4 170/5/4
f 170/5/4 167/5/4 171/5/4
f 172/9/4 173/9/4 177/9/4
f 177/9/4 173/9/4 178/9/4
f 174/8/4 175/8/4 181/8/4
f 175/9/4 176/9/4 182/9/4
f 181/8/4 175/8/4 182/8/4
f 182/9/4 176/9/4 183/9/4
f 178/3/4 179/3/4 184/3/4
f 180/5/4 181/5/4 185/5/4
f 184/3/4 179/3/4 185/3/4
f 179/5/4 180/5/4 185/5/4
f 185/5/4 181/5/4 186/5/4
f 187/8/4 188/8/4 190/8/4
f 188/9/4 189/9/4 191/9/4
f 190/8/4 188/8/4 191/8/4
f 191/9/4 189/9/4 192/9/4
f 195/9/5 194/9/5 193/9/5
f 196/9/5 194/9/5 195/9/5
f 197/8/5 196/8/5 195/8/5
f 198/8/5 196/8/5 197/8/5
f 199/9/5 198/9/5 197/9/5
f 200/9/5 198/9/5 199/9/5
f 203/9/5 202/9/5 201/9/5
f 204/9/5 202/9/5 203/9/5
f 206/3/5 205/3/5 204/3/5
f 207/3/5 205/3/5 206/3/5
f 209/3/5 205/3/5 207/3/5
f 210/3/5 205/3/5 209/3/5
f 211/9/5 209/9/5 208/9/5
f 212/9/5 209/9/5 211/9/5
f 215/8/5 214/8/5 213/8/5
f 216/8/5 214/8/5 215/8/5
f 218/3/5 217/3/5 216/3/5
f 219/3/5 217/3/5 218/3/5
f 223/3/5 221/3/5 220/3/5
f 224/3/5 221/3/5 223/3/5
f 225/8/5 223/8/5 222/8/5
f 226/8/5 223/8/5 225/8/5
f 229/7/5 228/7/5 227/7/5
f 230/7/5 228/7/5 229/7/5
f 233/7/5 232/7/5 231/7/5
f 234/7/5 232/7/5 233/7/5
f 235/9/6 236/9/6 237/9/6
f 237/9/6 236/9/6 238/9/6
f 238/5/6 239/5/6 242/5/6
f 242/5/6 239/5/6 243/5/6
f 240/7/6 241/7/6 244/7/6
f 244/7/6 241/7/6 245/7/6
f 246/7/6 247/7/6 248/7/6
f 248/7/6 247/7/6 249/7/6
f 250/5/6 251/5/6 253/5/6
f 253/5/6 251/5/6 254/5/6
f 252/9/6 253/9/6 255/9/6
f 255/9/6 253/9/6 256/9/6
f 257/5/6 258/5/6 259/5/6
f 259/5/6 258/5/6 260/5/6
f 261/9/6 262/9/6 263/9/6
f 263/9/6 262/9/6 264/9/6
f 263/8/6 264/8/6 265/8/6
f 265/8/6 264/8/6 266/8/6
f 265/9/6 266/9/6 267/9/6
f 267/9/6 266/9/6 268/9/6
