# MagicaVoxel @ Ephtracy

# group
o 

# material
mtllib ground1.mtl
usemtl palette

# normals
vn -1 0 0
vn 1 0 0
vn 0 0 1
vn 0 0 -1
vn 0 -1 0
vn 0 1 0

# texcoords
vt 0.533203 0.5
vt 0.537109 0.5
vt 0.814453 0.5
vt 0.900391 0.5
vt 0.904297 0.5

# verts
v -3.2 0 3.2
v -3.2 0 -3.2
v -3.2 0.2 3.2
v -3.2 0.2 -3.2
v -3.2 0.4 3.2
v -3.2 0.4 -3.2
v -3.2 0.5 3.2
v -3.2 0.5 -3.2
v -3.2 0.6 3.2
v -3.2 0.6 -3.2
v 3.2 0 3.2
v 3.2 0 -3.2
v 3.2 0.2 3.2
v 3.2 0.2 -3.2
v 3.2 0.4 3.2
v 3.2 0.4 -3.2
v 3.2 0.5 3.2
v 3.2 0.5 -3.2
v 3.2 0.6 3.2
v 3.2 0.6 -3.2
v -3.2 0 3.2
v -3.2 0.2 3.2
v -3.2 0.4 3.2
v -3.2 0.5 3.2
v -3.2 0.6 3.2
v 3.2 0 3.2
v 3.2 0.2 3.2
v 3.2 0.4 3.2
v 3.2 0.5 3.2
v 3.2 0.6 3.2
v -3.2 0 -3.2
v -3.2 0.2 -3.2
v -3.2 0.4 -3.2
v -3.2 0.5 -3.2
v -3.2 0.6 -3.2
v 3.2 0 -3.2
v 3.2 0.2 -3.2
v 3.2 0.4 -3.2
v 3.2 0.5 -3.2
v 3.2 0.6 -3.2
v -3.2 0 3.2
v 3.2 0 3.2
v -3.2 0 -3.2
v 3.2 0 -3.2
v -3.2 0.6 3.2
v 3.2 0.6 3.2
v 2.6 0.6 2.3
v 2.7 0.6 2.3
v 2.5 0.6 2.2
v 2.6 0.6 2.2
v 2.7 0.6 2.2
v 2.5 0.6 2.1
v 2.6 0.6 2.1
v 2.6 0.6 2
v 2.7 0.6 2
v 2.6 0.6 1.9
v 2.7 0.6 1.9
v -2.1 0.6 0.8
v -2 0.6 0.8
v -2.1 0.6 0.7
v -2 0.6 0.7
v -1.9 0.6 0.7
v -2.1 0.6 0.6
v -2 0.6 0.6
v -1.9 0.6 0.6
v -2.1 0.6 0.5
v -2 0.6 0.5
v 2.2 0.6 -2.6
v 2.3 0.6 -2.6
v 2.1 0.6 -2.7
v 2.2 0.6 -2.7
v 2.3 0.6 -2.7
v 2.4 0.6 -2.7
v 2.1 0.6 -2.8
v 2.2 0.6 -2.8
v 2.3 0.6 -2.8
v 2.4 0.6 -2.8
v -3.2 0.6 -3.2
v 3.2 0.6 -3.2

# faces
f 3/2/1 2/2/1 1/2/1
f 4/2/1 2/2/1 3/2/1
f 5/1/1 4/1/1 3/1/1
f 6/1/1 4/1/1 5/1/1
f 7/3/1 6/3/1 5/3/1
f 8/3/1 6/3/1 7/3/1
f 9/4/1 8/4/1 7/4/1
f 10/4/1 8/4/1 9/4/1
f 11/2/2 12/2/2 13/2/2
f 13/2/2 12/2/2 14/2/2
f 13/1/2 14/1/2 15/1/2
f 15/1/2 14/1/2 16/1/2
f 15/3/2 16/3/2 17/3/2
f 17/3/2 16/3/2 18/3/2
f 17/4/2 18/4/2 19/4/2
f 19/4/2 18/4/2 20/4/2
f 26/2/3 22/2/3 21/2/3
f 27/1/3 23/1/3 22/1/3
f 27/2/3 22/2/3 26/2/3
f 28/3/3 24/3/3 23/3/3
f 28/1/3 23/1/3 27/1/3
f 29/4/3 25/4/3 24/4/3
f 29/3/3 24/3/3 28/3/3
f 30/4/3 25/4/3 29/4/3
f 31/2/4 32/2/4 36/2/4
f 32/1/4 33/1/4 37/1/4
f 36/2/4 32/2/4 37/2/4
f 33/3/4 34/3/4 38/3/4
f 37/1/4 33/1/4 38/1/4
f 34/4/4 35/4/4 39/4/4
f 38/3/4 34/3/4 39/3/4
f 39/4/4 35/4/4 40/4/4
f 43/2/5 42/2/5 41/2/5
f 44/2/5 42/2/5 43/2/5
f 45/4/6 46/4/6 47/4/6
f 47/4/6 46/4/6 48/4/6
f 45/4/6 47/4/6 49/4/6
f 47/5/6 48/5/6 50/5/6
f 49/4/6 47/4/6 50/4/6
f 48/4/6 46/4/6 51/4/6
f 50/5/6 48/5/6 51/5/6
f 49/5/6 50/5/6 52/5/6
f 45/4/6 49/4/6 52/4/6
f 50/4/6 51/4/6 53/4/6
f 52/5/6 50/5/6 53/5/6
f 52/4/6 53/4/6 54/4/6
f 53/4/6 51/4/6 54/4/6
f 51/4/6 46/4/6 55/4/6
f 54/4/6 51/4/6 55/4/6
f 52/4/6 54/4/6 56/4/6
f 54/5/6 55/5/6 56/5/6
f 55/4/6 46/4/6 57/4/6
f 56/5/6 55/5/6 57/5/6
f 52/4/6 56/4/6 58/4/6
f 45/4/6 52/4/6 58/4/6
f 56/4/6 57/4/6 58/4/6
f 58/4/6 57/4/6 59/4/6
f 45/4/6 58/4/6 60/4/6
f 58/5/6 59/5/6 60/5/6
f 59/4/6 57/4/6 61/4/6
f 60/5/6 59/5/6 61/5/6
f 61/4/6 57/4/6 62/4/6
f 45/4/6 60/4/6 63/4/6
f 60/4/6 61/4/6 63/4/6
f 61/5/6 62/5/6 64/5/6
f 63/4/6 61/4/6 64/4/6
f 62/4/6 57/4/6 65/4/6
f 64/5/6 62/5/6 65/5/6
f 63/5/6 64/5/6 66/5/6
f 45/4/6 63/4/6 66/4/6
f 64/4/6 65/4/6 67/4/6
f 66/5/6 64/5/6 67/5/6
f 65/4/6 57/4/6 68/4/6
f 67/4/6 65/4/6 68/4/6
f 66/4/6 67/4/6 68/4/6
f 68/4/6 57/4/6 69/4/6
f 66/4/6 68/4/6 70/4/6
f 68/5/6 69/5/6 71/5/6
f 70/4/6 68/4/6 71/4/6
f 69/4/6 57/4/6 72/4/6
f 71/5/6 69/5/6 72/5/6
f 72/4/6 57/4/6 73/4/6
f 70/5/6 71/5/6 74/5/6
f 66/4/6 70/4/6 74/4/6
f 71/4/6 72/4/6 75/4/6
f 74/5/6 71/5/6 75/5/6
f 72/5/6 73/5/6 76/5/6
f 75/4/6 72/4/6 76/4/6
f 73/4/6 57/4/6 77/4/6
f 76/5/6 73/5/6 77/5/6
f 45/4/6 66/4/6 78/4/6
f 75/4/6 76/4/6 78/4/6
f 76/4/6 77/4/6 78/4/6
f 66/4/6 74/4/6 78/4/6
f 74/4/6 75/4/6 78/4/6
f 57/4/6 46/4/6 79/4/6
f 78/4/6 77/4/6 79/4/6
f 77/4/6 57/4/6 79/4/6
