# MagicaVoxel @ Ephtracy

# group
o 

# material
mtllib ground1river.mtl
usemtl palette

# normals
vn -1 0 0
vn 1 0 0
vn 0 0 1
vn 0 0 -1
vn 0 -1 0
vn 0 1 0

# texcoords
vt 0.373047 0.5
vt 0.423828 0.5
vt 0.537109 0.5
vt 0.896484 0.5

# verts
v -3.2 0 -3.2
v -3.2 0 -9.6
v -3.2 0.2 -3.2
v -3.2 0.2 -9.6
v -3.2 0.4 -3.2
v -3.2 0.4 -9.6
v -3.2 0.6 -3.2
v -3.2 0.6 -9.6
v 1.4 0.5 -3.2
v 1.4 0.5 -3.8
v 1.4 0.5 -6.7
v 1.4 0.5 -9.6
v 1.4 0.6 -3.2
v 1.4 0.6 -3.8
v 1.4 0.6 -6.7
v 1.4 0.6 -9.6
v 1.5 0.5 -3.8
v 1.5 0.5 -3.9
v 1.5 0.5 -6.3
v 1.5 0.5 -6.7
v 1.5 0.6 -3.8
v 1.5 0.6 -3.9
v 1.5 0.6 -6.3
v 1.5 0.6 -6.7
v 1.6 0.5 -3.9
v 1.6 0.5 -4.3
v 1.6 0.5 -5.3
v 1.6 0.5 -6.3
v 1.6 0.6 -3.9
v 1.6 0.6 -4.3
v 1.6 0.6 -5.3
v 1.6 0.6 -6.3
v 1.7 0.5 -4.3
v 1.7 0.5 -4.6
v 1.7 0.5 -5.1
v 1.7 0.5 -5.3
v 1.7 0.6 -4.3
v 1.7 0.6 -4.6
v 1.7 0.6 -5.1
v 1.7 0.6 -5.3
v 1.8 0.5 -4.6
v 1.8 0.5 -5.1
v 1.8 0.6 -4.6
v 1.8 0.6 -5.1
v -1.5 0.5 -8.1
v -1.5 0.5 -8.7
v -1.5 0.6 -8.1
v -1.5 0.6 -8.7
v -1.4 0.5 -8
v -1.4 0.5 -8.1
v -1.4 0.5 -8.7
v -1.4 0.5 -8.9
v -1.4 0.6 -8
v -1.4 0.6 -8.1
v -1.4 0.6 -8.7
v -1.4 0.6 -8.9
v -1.3 0.5 -7.8
v -1.3 0.5 -8
v -1.3 0.5 -8.9
v -1.3 0.5 -9.1
v -1.3 0.6 -7.8
v -1.3 0.6 -8
v -1.3 0.6 -8.9
v -1.3 0.6 -9.1
v -1.2 0.5 -3.2
v -1.2 0.5 -7.8
v -1.2 0.5 -9.1
v -1.2 0.5 -9.6
v -1.2 0.6 -3.2
v -1.2 0.6 -7.8
v -1.2 0.6 -9.1
v -1.2 0.6 -9.6
v 3.2 0 -3.2
v 3.2 0 -9.6
v 3.2 0.2 -3.2
v 3.2 0.2 -9.6
v 3.2 0.4 -3.2
v 3.2 0.4 -9.6
v 3.2 0.6 -3.2
v 3.2 0.6 -9.6
v -3.2 0 -3.2
v -3.2 0.2 -3.2
v -3.2 0.4 -3.2
v -3.2 0.6 -3.2
v -1.2 0.4 -3.2
v -1.2 0.5 -3.2
v -1.2 0.6 -3.2
v -1 0.2 -3.2
v -1 0.4 -3.2
v 1.2 0.2 -3.2
v 1.2 0.4 -3.2
v 1.4 0.4 -3.2
v 1.4 0.5 -3.2
v 1.4 0.6 -3.2
v 3.2 0 -3.2
v 3.2 0.2 -3.2
v 3.2 0.4 -3.2
v 3.2 0.6 -3.2
v 1.7 0.5 -5.1
v 1.7 0.6 -5.1
v 1.8 0.5 -5.1
v 1.8 0.6 -5.1
v 1.6 0.5 -5.3
v 1.6 0.6 -5.3
v 1.7 0.5 -5.3
v 1.7 0.6 -5.3
v 1.5 0.5 -6.3
v 1.5 0.6 -6.3
v 1.6 0.5 -6.3
v 1.6 0.6 -6.3
v 1.4 0.5 -6.7
v 1.4 0.6 -6.7
v 1.5 0.5 -6.7
v 1.5 0.6 -6.7
v -1.5 0.5 -8.7
v -1.5 0.6 -8.7
v -1.4 0.5 -8.7
v -1.4 0.6 -8.7
v -1.4 0.5 -8.9
v -1.4 0.6 -8.9
v -1.3 0.5 -8.9
v -1.3 0.6 -8.9
v -1.3 0.5 -9.1
v -1.3 0.6 -9.1
v -1.2 0.5 -9.1
v -1.2 0.6 -9.1
v 1.4 0.5 -3.8
v 1.4 0.6 -3.8
v 1.5 0.5 -3.8
v 1.5 0.6 -3.8
v 1.5 0.5 -3.9
v 1.5 0.6 -3.9
v 1.6 0.5 -3.9
v 1.6 0.6 -3.9
v 1.6 0.5 -4.3
v 1.6 0.6 -4.3
v 1.7 0.5 -4.3
v 1.7 0.6 -4.3
v 1.7 0.5 -4.6
v 1.7 0.6 -4.6
v 1.8 0.5 -4.6
v 1.8 0.6 -4.6
v -1.3 0.5 -7.8
v -1.3 0.6 -7.8
v -1.2 0.5 -7.8
v -1.2 0.6 -7.8
v -1.4 0.5 -8
v -1.4 0.6 -8
v -1.3 0.5 -8
v -1.3 0.6 -8
v -1.5 0.5 -8.1
v -1.5 0.6 -8.1
v -1.4 0.5 -8.1
v -1.4 0.6 -8.1
v -3.2 0 -9.6
v -3.2 0.2 -9.6
v -3.2 0.4 -9.6
v -3.2 0.6 -9.6
v -1.2 0.4 -9.6
v -1.2 0.5 -9.6
v -1.2 0.6 -9.6
v -1 0.2 -9.6
v -1 0.4 -9.6
v 1.2 0.2 -9.6
v 1.2 0.4 -9.6
v 1.4 0.4 -9.6
v 1.4 0.5 -9.6
v 1.4 0.6 -9.6
v 3.2 0 -9.6
v 3.2 0.2 -9.6
v 3.2 0.4 -9.6
v 3.2 0.6 -9.6
v -3.2 0 -3.2
v 3.2 0 -3.2
v -3.2 0 -9.6
v 3.2 0 -9.6
v -1.2 0.5 -3.2
v 1.4 0.5 -3.2
v 1.4 0.5 -3.8
v 1.5 0.5 -3.8
v 1.5 0.5 -3.9
v 1.6 0.5 -3.9
v 1.6 0.5 -4.3
v 1.7 0.5 -4.3
v 1.7 0.5 -4.6
v 1.8 0.5 -4.6
v 1.7 0.5 -5.1
v 1.8 0.5 -5.1
v 1.6 0.5 -5.3
v 1.7 0.5 -5.3
v 1.5 0.5 -6.3
v 1.6 0.5 -6.3
v 1.4 0.5 -6.7
v 1.5 0.5 -6.7
v -1.3 0.5 -7.8
v -1.2 0.5 -7.8
v -1.4 0.5 -8
v -1.3 0.5 -8
v -1.5 0.5 -8.1
v -1.4 0.5 -8.1
v -1.5 0.5 -8.7
v -1.4 0.5 -8.7
v -1.4 0.5 -8.9
v -1.3 0.5 -8.9
v -1.3 0.5 -9.1
v -1.2 0.5 -9.1
v -1.2 0.5 -9.6
v 1.4 0.5 -9.6
v -3.2 0.6 -3.2
v -1.2 0.6 -3.2
v 1.4 0.6 -3.2
v 3.2 0.6 -3.2
v 1.4 0.6 -3.8
v 1.5 0.6 -3.8
v 1.5 0.6 -3.9
v 1.6 0.6 -3.9
v 1.6 0.6 -4.3
v 1.7 0.6 -4.3
v 1.7 0.6 -4.6
v 1.8 0.6 -4.6
v 1.7 0.6 -5.1
v 1.8 0.6 -5.1
v 1.6 0.6 -5.3
v 1.7 0.6 -5.3
v 1.5 0.6 -6.3
v 1.6 0.6 -6.3
v 1.4 0.6 -6.7
v 1.5 0.6 -6.7
v -1.3 0.6 -7.8
v -1.2 0.6 -7.8
v -1.4 0.6 -8
v -1.3 0.6 -8
v -1.5 0.6 -8.1
v -1.4 0.6 -8.1
v -1.5 0.6 -8.7
v -1.4 0.6 -8.7
v -1.4 0.6 -8.9
v -1.3 0.6 -8.9
v -1.3 0.6 -9.1
v -1.2 0.6 -9.1
v -3.2 0.6 -9.6
v -1.2 0.6 -9.6
v 1.4 0.6 -9.6
v 3.2 0.6 -9.6

# faces
f 3/3/1 2/3/1 1/3/1
f 4/3/1 2/3/1 3/3/1
f 5/1/1 4/1/1 3/1/1
f 6/1/1 4/1/1 5/1/1
f 7/4/1 6/4/1 5/4/1
f 8/4/1 6/4/1 7/4/1
f 13/4/1 10/4/1 9/4/1
f 14/4/1 10/4/1 13/4/1
f 15/4/1 12/4/1 11/4/1
f 16/4/1 12/4/1 15/4/1
f 21/4/1 18/4/1 17/4/1
f 22/4/1 18/4/1 21/4/1
f 23/4/1 20/4/1 19/4/1
f 24/4/1 20/4/1 23/4/1
f 29/4/1 26/4/1 25/4/1
f 30/4/1 26/4/1 29/4/1
f 31/4/1 28/4/1 27/4/1
f 32/4/1 28/4/1 31/4/1
f 37/4/1 34/4/1 33/4/1
f 38/4/1 34/4/1 37/4/1
f 39/4/1 36/4/1 35/4/1
f 40/4/1 36/4/1 39/4/1
f 43/4/1 42/4/1 41/4/1
f 44/4/1 42/4/1 43/4/1
f 45/4/2 46/4/2 47/4/2
f 47/4/2 46/4/2 48/4/2
f 49/4/2 50/4/2 53/4/2
f 53/4/2 50/4/2 54/4/2
f 51/4/2 52/4/2 55/4/2
f 55/4/2 52/4/2 56/4/2
f 57/4/2 58/4/2 61/4/2
f 61/4/2 58/4/2 62/4/2
f 59/4/2 60/4/2 63/4/2
f 63/4/2 60/4/2 64/4/2
f 65/4/2 66/4/2 69/4/2
f 69/4/2 66/4/2 70/4/2
f 67/4/2 68/4/2 71/4/2
f 71/4/2 68/4/2 72/4/2
f 73/3/2 74/3/2 75/3/2
f 75/3/2 74/3/2 76/3/2
f 75/1/2 76/1/2 77/1/2
f 77/1/2 76/1/2 78/1/2
f 77/4/2 78/4/2 79/4/2
f 79/4/2 78/4/2 80/4/2
f 85/1/3 83/1/3 82/1/3
f 85/4/3 84/4/3 83/4/3
f 86/4/3 84/4/3 85/4/3
f 87/4/3 84/4/3 86/4/3
f 88/3/3 82/3/3 81/3/3
f 88/1/3 85/1/3 82/1/3
f 89/2/3 86/2/3 85/2/3
f 89/1/3 85/1/3 88/1/3
f 90/3/3 88/3/3 81/3/3
f 90/2/3 89/2/3 88/2/3
f 91/2/3 86/2/3 89/2/3
f 91/2/3 89/2/3 90/2/3
f 92/1/3 91/1/3 90/1/3
f 92/2/3 86/2/3 91/2/3
f 93/2/3 86/2/3 92/2/3
f 95/3/3 90/3/3 81/3/3
f 96/1/3 92/1/3 90/1/3
f 96/3/3 90/3/3 95/3/3
f 97/4/3 94/4/3 93/4/3
f 97/1/3 92/1/3 96/1/3
f 97/4/3 93/4/3 92/4/3
f 98/4/3 94/4/3 97/4/3
f 101/4/3 100/4/3 99/4/3
f 102/4/3 100/4/3 101/4/3
f 105/4/3 104/4/3 103/4/3
f 106/4/3 104/4/3 105/4/3
f 109/4/3 108/4/3 107/4/3
f 110/4/3 108/4/3 109/4/3
f 113/4/3 112/4/3 111/4/3
f 114/4/3 112/4/3 113/4/3
f 117/4/3 116/4/3 115/4/3
f 118/4/3 116/4/3 117/4/3
f 121/4/3 120/4/3 119/4/3
f 122/4/3 120/4/3 121/4/3
f 125/4/3 124/4/3 123/4/3
f 126/4/3 124/4/3 125/4/3
f 127/4/4 128/4/4 129/4/4
f 129/4/4 128/4/4 130/4/4
f 131/4/4 132/4/4 133/4/4
f 133/4/4 132/4/4 134/4/4
f 135/4/4 136/4/4 137/4/4
f 137/4/4 136/4/4 138/4/4
f 139/4/4 140/4/4 141/4/4
f 141/4/4 140/4/4 142/4/4
f 143/4/4 144/4/4 145/4/4
f 145/4/4 144/4/4 146/4/4
f 147/4/4 148/4/4 149/4/4
f 149/4/4 148/4/4 150/4/4
f 151/4/4 152/4/4 153/4/4
f 153/4/4 152/4/4 154/4/4
f 156/1/4 157/1/4 159/1/4
f 157/4/4 158/4/4 159/4/4
f 159/4/4 158/4/4 160/4/4
f 160/4/4 158/4/4 161/4/4
f 155/3/4 156/3/4 162/3/4
f 156/1/4 159/1/4 162/1/4
f 159/2/4 160/2/4 163/2/4
f 162/1/4 159/1/4 163/1/4
f 155/3/4 162/3/4 164/3/4
f 162/2/4 163/2/4 164/2/4
f 163/2/4 160/2/4 165/2/4
f 164/2/4 163/2/4 165/2/4
f 164/1/4 165/1/4 166/1/4
f 165/2/4 160/2/4 166/2/4
f 166/2/4 160/2/4 167/2/4
f 155/3/4 164/3/4 169/3/4
f 164/1/4 166/1/4 170/1/4
f 169/3/4 164/3/4 170/3/4
f 167/4/4 168/4/4 171/4/4
f 170/1/4 166/1/4 171/1/4
f 166/4/4 167/4/4 171/4/4
f 171/4/4 168/4/4 172/4/4
f 175/3/5 174/3/5 173/3/5
f 176/3/5 174/3/5 175/3/5
f 177/2/6 178/2/6 179/2/6
f 179/4/6 180/4/6 181/4/6
f 181/4/6 182/4/6 183/4/6
f 183/4/6 184/4/6 185/4/6
f 183/4/6 185/4/6 187/4/6
f 185/4/6 186/4/6 187/4/6
f 187/4/6 186/4/6 188/4/6
f 181/4/6 183/4/6 189/4/6
f 183/4/6 187/4/6 189/4/6
f 189/4/6 187/4/6 190/4/6
f 179/4/6 181/4/6 191/4/6
f 181/4/6 189/4/6 191/4/6
f 191/4/6 189/4/6 192/4/6
f 177/2/6 179/2/6 193/2/6
f 179/4/6 191/4/6 193/4/6
f 193/4/6 191/4/6 194/4/6
f 177/2/6 193/2/6 196/2/6
f 195/4/6 196/4/6 198/4/6
f 197/4/6 198/4/6 200/4/6
f 199/4/6 200/4/6 201/4/6
f 200/4/6 198/4/6 202/4/6
f 201/4/6 200/4/6 202/4/6
f 202/4/6 198/4/6 203/4/6
f 198/4/6 196/4/6 204/4/6
f 203/4/6 198/4/6 204/4/6
f 204/4/6 196/4/6 205/4/6
f 196/2/6 193/2/6 206/2/6
f 205/4/6 196/4/6 206/4/6
f 206/2/6 193/2/6 207/2/6
f 207/2/6 193/2/6 208/2/6
f 211/4/6 212/4/6 213/4/6
f 213/4/6 212/4/6 214/4/6
f 214/4/6 212/4/6 215/4/6
f 215/4/6 212/4/6 216/4/6
f 216/4/6 212/4/6 217/4/6
f 217/4/6 212/4/6 218/4/6
f 218/4/6 212/4/6 219/4/6
f 219/4/6 212/4/6 220/4/6
f 220/4/6 212/4/6 222/4/6
f 221/4/6 222/4/6 224/4/6
f 223/4/6 224/4/6 226/4/6
f 225/4/6 226/4/6 228/4/6
f 209/4/6 210/4/6 229/4/6
f 229/4/6 210/4/6 230/4/6
f 209/4/6 229/4/6 231/4/6
f 231/4/6 229/4/6 232/4/6
f 209/4/6 231/4/6 233/4/6
f 233/4/6 231/4/6 234/4/6
f 209/4/6 233/4/6 235/4/6
f 235/4/6 236/4/6 237/4/6
f 237/4/6 238/4/6 239/4/6
f 237/4/6 239/4/6 241/4/6
f 239/4/6 240/4/6 241/4/6
f 209/4/6 235/4/6 241/4/6
f 235/4/6 237/4/6 241/4/6
f 241/4/6 240/4/6 242/4/6
f 227/4/6 228/4/6 243/4/6
f 222/4/6 212/4/6 244/4/6
f 243/4/6 228/4/6 244/4/6
f 224/4/6 222/4/6 244/4/6
f 226/4/6 224/4/6 244/4/6
f 228/4/6 226/4/6 244/4/6
